<?xml version="1.0" encoding="utf-8"?>
<!-- Generator: Adobe Illustrator 21.0.0, SVG Export Plug-In . SVG Version: 6.00 Build 0)  -->
<svg version="1.1" id="Layer_1" xmlns="http://www.w3.org/2000/svg" xmlns:xlink="http://www.w3.org/1999/xlink" x="0px" y="0px"
	 viewBox="0 0 1200 1023.6" style="enable-background:new 0 0 1200 1023.6;" xml:space="preserve">
<style type="text/css">
	.st0{fill:#124F69;}
	.st1{fill:#002136;}
	.st2{fill:#FEFEFE;}
	.st3{fill:#EAEAEA;}
	.st4{fill:#E2E2E2;}
	.st5{fill:#F3EAE7;}
	.st6{fill:#FDFDFD;}
	.st7{fill:#FAFAF8;}
	.st8{fill:#114F68;}
	.st9{fill:#012136;}
	.st10{fill:#F0F3F3;}
	.st11{fill:#192E41;}
	.st12{fill:#B1C1C6;}
	.st13{fill:#FBFBFB;}
	.st14{fill:#062438;}
	.st15{fill:#0B273B;}
	.st16{fill:#41505E;}
	.st17{fill:#3D4C5A;}
	.st18{fill:#152E41;}
	.st19{fill:#122C3F;}
	.st20{fill:#1D3547;}
	.st21{fill:#0A2438;}
	.st22{fill:#4C5C69;}
	.st23{fill:#42525F;}
	.st24{fill:#2E404F;}
	.st25{fill:#233749;}
	.st26{fill:#FBFCFB;}
	.st27{fill:#072539;}
	.st28{fill:#022136;}
	.st29{fill:#032237;}
	.st30{fill:#042237;}
	.st31{fill:#07253A;}
	.st32{fill:#032135;}
	.st33{fill:#042236;}
	.st34{fill:#112B3D;}
	.st35{fill:#193043;}
	.st36{fill:#172F41;}
	.st37{fill:#142C3E;}
	.st38{fill:#F9FAFA;}
	.st39{fill:#F8F9F9;}
	.st40{fill:#F6F8F8;}
	.st41{fill:#F6F7F7;}
	.st42{fill:#F3F4F4;}
	.st43{fill:#F1F3F2;}
	.st44{fill:#23394D;}
	.st45{fill:#233B4D;}
	.st46{fill:#072237;}
	.st47{fill:#FCFDFD;}
	.st48{fill:none;stroke:#F3F1F0;stroke-width:7;stroke-miterlimit:10;}
	.st49{fill:none;stroke:#F3F1F0;stroke-width:7;stroke-miterlimit:10;stroke-dasharray:25.7647,25.7647;}
	.st50{fill:none;stroke:#F3F1F0;stroke-width:7;stroke-miterlimit:10;stroke-dasharray:26.0818,26.0818;}
</style>
<g>
	<path class="st0" d="M1078.9,696.7c-2.4,1.6-5,2.5-7.9,2.9c-3.4-0.7-5.2-3.6-7.4-5.8c-39.4-39.3-78.7-78.6-118-118
		c-2.2-2.2-4.4-4.6-7.4-5.8c-1.4-2-2.7-4.1-5.3-4.9c-10-4.2-19.9-4.4-29.8,0.2c-2.7,1.6-2.3,4.5-2.9,7c-1.4,5.7-0.5,11.5-0.7,17.3
		c0,2.9,0.1,5.8-0.1,8.7c-0.6,6.9,0.8,12.9,6.4,17.3c0,2.6,2.2,3.7,3.7,5.2c26.9,26.9,53.8,53.8,80.7,80.8c2,2,4.9,3.5,4.2,7.1
		c-29.9-1.6-57.7-10.6-82.8-26.4c-58.8-36.9-90.1-90.5-92.6-159.8c-3.5-96,71.2-182.1,166.5-193.2c108.5-12.6,203,62.4,214.5,170.8
		c2.2,21.1,1.2,42.2-4.5,62.8c-3.5-0.5-5.2-3.4-7.4-5.6c-36.6-36.6-73.2-73.2-109.9-109.8c-2.2-2.2-4.3-4.7-7.2-6.2
		c-0.6-0.3-1.2-0.6-1.8-1c-7.9-2.1-16-2.4-24.2-2.8c-2.9-0.1-5.8-0.9-8.6-1.7c-4-1.7-7.2-5.1-11.8-5.6c-12.5-4-25.3-7.4-37.3-12.8
		c-6.5-2.9-12.8-6-18.5-10c-4.5-3.1-7.3-2.3-9.8,2.3c-2.1,3.8-5.1,7-6.9,10.9c-0.8,1.4-1.9,2.6-3,3.8c-5.8,6.2-9.7,13.7-14.5,20.6
		c-0.3,0.5-0.7,1-1.1,1.5c-5.3,6.4-9.5,13.6-14.1,20.6c-0.3,0.5-0.7,1.1-1.1,1.5c-6.5,8.4-12,17.4-18.3,26c-2.2,3-4,6.4-9,3
		c0.5,5.6,2.8,9.4,5.8,12.7c2.3,3.2,5,5.9,7.8,8.6c56.3,56.3,112.5,112.5,168.7,168.8C1075.7,690.5,1079.5,692.2,1078.9,696.7z"/>
	<path class="st1" d="M948.1,423.1c0.9-0.7,1.7-1.4,2.6-2.1c2.9,3.9-0.1,7-1.7,9.9c-12.4,22.8-25,45.4-39.3,67
		c-4.6,7-4.7,7,1.7,11.9c19.9,15.1,40.1,29.9,59.8,45.3c3.9,3.1,5.9,2.3,8.5-1.5c8.9-13.2,18.4-26,27.4-39.1
		c1.5-2.2,3.5-6.1,5.9-4.5c3.4,2.2-0.2,5.2-1.7,7.4c-8.9,13.2-17.1,26.8-26.1,40c-3.7,5.4-3.1,5.9,3.7,11.1c4.6,3.5,6.7,1.3,9.2-2.3
		c25.7-37.6,48.1-77.1,66.5-118.8c1.1-2.4,1.3-5.5,4.7-6.1c7.3,7.6,11.4,17.3,16.9,26c14.3,23,28.2,46.4,42.1,69.7
		c1.7,2.9,7.4,4.1,4.8,9.3c1.3-2.2,2.3-4.5,1.8-7.8c-2.7,1.8-4.6,1.6-6.4-1.4c-18.7-31-37.5-61.9-56.1-92.9
		c-0.7-1.2-1.6-2.3-0.8-3.8c2,0.2,3.1,1.8,4.4,3c38.9,38.9,77.9,77.8,116.8,116.7c1,1,1.8,2.1,2.6,3.1
		c-7.5,34.3-24.2,63.7-48.5,88.8c-19.3,19.9-41.6,35.4-68,44.7c-2-2.2-3.8-4.5-5.9-6.5c-57.2-57.3-114.5-114.5-171.7-171.8
		c-2-2-4.8-3.6-5.2-6.9c-2.8-5-3.2-9,1.1-14.2c7.8-9.3,14-19.8,21-29.7l-0.1,0.1c5.3-7.1,9.7-14.8,15.1-21.9l-0.1,0.1
		C938.3,438.4,943.5,430.9,948.1,423.1z"/>
	<path class="st1" d="M938.9,569.7c2.2-1.5,3.3,0.3,4.5,1.5c42.2,42.2,84.4,84.4,126.6,126.6c0.5,0.5,0.7,1.1,1.1,1.7
		c-24.9,8.9-50.4,12.3-76.7,9.3c-14.1-14.3-28.2-28.7-42.4-43c-14.3-14.5-28.8-28.8-43.1-43.3c-1.4-1.4-4.3-2.1-3.4-5.1
		c6.4-0.7,12.8,1.6,19.4-0.2c7.1-2,12.2-5.1,14.5-12.5c1.9-6,4.6-11.8,7-17.7c0.2-1.2,1.6-2.5,0.1-3.6c-0.8-0.6-1.5,0.6-2,1.2
		c-1.1,1.3-2.1,2.5-4.1,2.1c-4.4-3.7-0.8-9.6-3.6-13.7C936.6,571.3,937.2,570.2,938.9,569.7z"/>
	<path class="st2" d="M1069.4,441.7c-5,10.6-9.9,21.2-15.1,31.8c-16.2,33.1-34.9,64.8-55.8,95.1c-3.2,4.6-5.1,6.1-10.1,1.8
		c-8.6-7.5-8.9-7.1-2.5-16.9c9.3-14.2,18.5-28.5,26.6-43.5c-12.1,17.1-24.2,34.3-36.2,51.1c-22.8-17.2-45.3-34.5-68.2-51.3
		c-4.8-3.6-5-5.7-1.6-10.4c16-23.2,29.7-47.8,43-72.7c0.9-1.7,2.6-3.3,1.2-5.6c1.8-7,7.3-11.7,10.8-17.7c1-1.7,2.2-0.9,3.4-0.1
		c17.9,12.4,38.1,19.5,58.8,25.2c0.4,0.1,0.7,0.6,1,0.9c-3.1,2.3-6.3,1.1-9.7,0.5c-5-0.9-9.9-2.1-13.5-2.7c10,3.7,22.6,2.3,33.9,7.3
		c9.8,1.9,19.7,2.1,29.6,2.7c2.5,0.1,5.1-0.2,5.9,3.1C1071.3,441.7,1070.7,442,1069.4,441.7z"/>
	<path class="st2" d="M941.3,586.3c0.8-1,1.6-2,2.5-3c2.9-1,4.5,0,4.6,3.1c-3,7.8-6.2,15.5-8.9,23.4c-1.3,3.6-3.6,5.7-6.9,6.9
		c-8.9,3.3-17.9,4.9-27,0.8c-11.9-6.3-7.2-17.3-7.6-26.9c0.9-4.3,0.4-8.6,0.3-12.8c0-3.2,1-5,4.3-4c10.9,3.3,21.7,3.5,32.6-0.3
		c3.4-1.2,3.7,1.5,4.2,4.3C939.9,580.5,936.7,584.4,941.3,586.3z"/>
	<path class="st3" d="M901.7,564.1c9.7-5.7,26.6-5.7,34.1,0.1c3.8,2.8,2.9,5.1-0.6,7.6c-3.4,2.4-7.5,3.2-10.9,5.4
		c-6,1.4-11.9,0.3-17.8-1.2C904.4,572.2,898,570.2,901.7,564.1z"/>
	<path class="st2" d="M1069.4,441.7c0.5-0.5,0.9-0.9,1.4-1.4c0.3,0,0.6,0,0.8,0c19.8,33,39.7,66.1,59.6,99.3
		c1.7-1.7,1.2-5.9,5.1-3.9c3.3,1.7,1.1,3.9,0.4,5.8c-1.4,3.7-3,7.3-4.6,11.3c-1-1-1.6-1.4-1.5-1.6c3.3-6.6-1.3-11.1-4.2-15.9
		C1107.4,504,1088.4,472.8,1069.4,441.7z"/>
	<path class="st2" d="M918.2,467.5c-6,12-14.4,22.3-22.1,33.1c-1.5,2.1-1.5,2.4-0.4,4.3c1,1.8,1.6,4.3,0.5,6.5
		c-5.2-2.7-5.1-8.6-7.7-12.8c-0.7-1.2,0.3-2.1,1.4-2.6c1.2-0.4,2.9-2,3.5-0.4c2.5,6.3,3.6,0.7,4.5-0.6c5.4-7.5,10.5-15.3,15.9-22.8
		C915,470.5,915.5,467.9,918.2,467.5z"/>
	<path class="st4" d="M905.7,574.1c5.8,2.5,11.7,3.7,17.9,1.5c4.5-0.1,7.9-4.9,12.9-3.1c3.9-0.3,3.4,2.4,3.6,4.9
		c0.3,3-1.4,6.3,1.2,8.9c-2.4,0-2.4,0-2.6-1.5c-0.6-3.5,2.1-8.2-0.9-10c-1.9-1.2-6.2,1.7-9.4,2.4c-10,2.3-19.7,1.2-29.3-3.2
		c-1.2,5.8,0.7,11.3-1.2,16.5c0-6.6-1.7-13.2,1.2-19.6C902.1,570.4,903.7,572.6,905.7,574.1z"/>
	<path class="st2" d="M936.5,572.5c-4.2,1.4-8.4,3.1-12.9,3.1c2.8-1.8,5.5-4.4,8.5-5.1c4.9-1.1,3.5-3.4,2.2-6.2
		c3.4,0.2,4.4,2.4,4.5,5.4C938.1,570.6,937.3,571.6,936.5,572.5z"/>
	<path class="st2" d="M948.1,423.1c-3,8.9-8.8,15.9-15,22.6C936.6,437.2,942.4,430.2,948.1,423.1z"/>
	<path class="st2" d="M933.2,445.7c-3.9,8.1-8.7,15.5-15.1,21.9C921.7,459.3,926.7,452,933.2,445.7z"/>
	<path class="st5" d="M905.7,574.1c-2.2-1.1-4.4-2.2-6.7-3.3c-1.3-3.1-0.1-5.1,2.6-6.6c0,3.7,0.2,7.4,4.5,8.9c0.1,0,0.1,0.4,0,0.6
		C906.1,573.9,905.9,574,905.7,574.1z"/>
	<path class="st6" d="M1070.4,455.7c6.9,15.9,13.2,31.9,20.8,47.3c7.9,16.1,15.9,32.2,24.2,48.1c2.7,5.1,4,7.6-3.8,8.5
		c-10.3,1.2-20.5,4.1-30.7,6.2c-2.6,0.5-4.9,1-4.7-3.2c1.2-27.4-4.1-54.3-5.8-81.5C1069.9,472.6,1069.7,464.2,1070.4,455.7z"/>
	<path class="st2" d="M1064.9,468.4c-6.3,26-5.1,52-3.3,78.1c1.1,16.7,0.6,16.7-15.5,19.6c-12.5,2.3-24.9,4.5-38.8,7
		C1029.6,538.9,1048.3,504.2,1064.9,468.4z"/>
	<path class="st6" d="M1082.6,572.9c9.2,0.5,18.3,1.2,26.6,5.3c2.6,1.3,5.6,2.8,5.4,6.3c-0.2,3.1-2.9,4.7-5.3,5.6
		c-14.9,5.6-30.4,9-46.4,9.4c-2.6,0.1-5.4-0.9-7.8-2c-7.6-3.4-8.6-10.1-2.3-15.5C1061.4,574.6,1072,573.6,1082.6,572.9z"/>
	<path class="st2" d="M972.5,568c-7.8,3.6-0.5,7.2-1.5,10.6c-0.3,0.8-0.1,1.8-1.3,2.1c-1.1,0.2-1.7-0.5-2.1-1.3
		c-2-4.3-3.9-8.7-5.9-13c-1.4-3.1,1.3-3.2,2.9-4.1c2-1.1,3-0.3,3.4,1.7C968.4,565.9,968.7,567.8,972.5,568z"/>
	<path class="st3" d="M948.3,586.4c-0.9-2-2.5-2.8-4.6-3.1c0.6-2,1.2-4,4-2.3C950.3,582.6,950.1,584.4,948.3,586.4z"/>
	<path class="st7" d="M928.3,567.7c-5.6,3-11.3,2.4-17,1.8c-0.7-0.1-1.4-1-2-1.5c0.5-0.6,1-1.7,1.6-1.8
		C916.7,565.4,922.6,564.7,928.3,567.7z"/>
</g>
<g>
	<path class="st8" d="M181.5,647.9c-46.6,12.6-89.4,4.3-126.8-25.9c-80.5-64.8-67.1-189.3,24.8-236.4
		c81.3-41.8,181.4,5.6,201.7,95.2c2,9,3.5,18,2.9,27.3c-3.9,1.1-5.4-2.3-7.3-4.3c-16.7-16.5-33.4-33.2-49.9-49.9
		c-1.6-1.6-2.9-2.7-5.3-2.3c-1.2-0.9-2.4-1.3-3.1,0.4c-3.2,7.6-10.1,9.9-17.2,11.5c-7.8,1.8-16,2.6-23.8,4.3
		c-3.7,0.8-7.2,1.9-10.3,4.1c-2.4,1.6-3.2,3.4-1.4,6c0.1,1.5-0.5,2.5-1.7,3.2c-8.5-0.3-15.8-3.4-20.2-10.8
		c-10.1-17.4-33-20.8-47.7-7c-5.5,5.2-10.1,11-12.1,18.4c-0.5,2-1.1,4.3-3.1,5.6c-3.3-1.2-2.5,2.7-4.2,3.4
		c-4.1,7.5-8.4,14.8-9.3,23.6c0,1.7-0.1,3.4,0.2,5.3c-1.8,6-3,11.8,2.7,16.5c16.3,16.7,32.7,33.5,49.9,49.5
		c19.6,18.4,38.2,38,57.3,57C179.4,644.1,181.2,645.5,181.5,647.9z"/>
	<path class="st9" d="M164,481c0.4-1.1,0.9-2,1.4-3.1c0.2-5.3,4.5-6.4,8.3-8.1c8.2-3.4,17-3.8,25.6-5.2c8.5-1.3,16.2-3.8,20.8-11.7
		c0.4-0.8,1.3-1.1,2.1-1.3c2.5-3.4,3.9-0.4,5.4,1.1c17.1,17,34,33.9,51.1,50.9c1.7,1.7,3.1,3.8,5.5,4.6c1.6,19.3-1.9,37.9-9.3,55.6
		c-17.7,42.7-48.6,71.2-93.3,84.1c-0.9-0.6-1.8-1.2-2.6-1.9c-35.6-35.2-71.4-70.5-107-105.7c-1-0.9-1.6-2-2.4-3.1
		c11-3,19.4-9.6,26.6-18c3-3.5,7-3.6,10.2,0.1c4.2,4.7,9.4,6,15.4,5.8c5.3-0.2,10.5-0.1,15.5,2.3c2.1,1.1,4.7,2,5.5,4.4
		c2.6,7.6,8.8,10.2,15.8,11.1c6.5,0.8,8.8,3.9,9.1,10.2c0.3,7.4,1.8,14.8,4.7,21.8c2,4.9,4.9,9.4,10.3,11.4s7.8,0,7.6-5.7
		c-0.5-12.1-0.6-24.2,4.1-35.6c3.5-8.7,8.1-17,17-20.9c8.6-3.8,8.5-11,8.9-18c0.4-7.3-3.2-12.7-9.4-16.1c-7-3.8-14.6-4.4-22.3-3.8
		c-6.5,0.5-13.1,1.4-19.5-1.1C167,484.1,164.7,483.5,164,481z"/>
	<path class="st2" d="M164,481c6.8,3.9,13.8,4.5,21.5,3.3c8.2-1.2,16.2-0.8,23.8,2.7c10,4.5,13.6,10.3,12.7,21.3
		c-0.6,7.3-1.5,13.6-10.3,17.5c-11.9,5.3-16,17.4-18.6,29.4c-1.9,8.8-2.1,17.9-0.6,26.8c1,5.4-1.4,6.7-5.8,6.9
		c-5.7,0.2-9.6-2.7-12.6-7.1c-6.3-9.4-7.9-20.3-8.4-31.2c-0.2-4-1-5.4-5.4-5.8c-8.3-0.9-16.1-2.4-19.2-12.7
		c-1.3-4.3-7.9-5.4-13.2-5.3c-3.8,0.1-7.4,0.3-11.2,0.2c-3.9-0.1-7.2-1.8-10-4.4c-6.3-5.9-6-5.8-12.2,1c-6.8,7.3-14,14.1-25,13.6
		c-6-5.4-6.3-7.6-2.4-18c3.2-11,7.3-21.6,13.1-31.6c3.3-7.9,5.5-16.3,11.9-22.9c12-12.2,28.2-14.9,42.9-6.5c3.1,1.8,6.5,3.9,7.6,7
		C146.1,475.6,155.4,477.7,164,481z"/>
	<path class="st10" d="M222.2,451.5c-3.3,10.4-12.1,12.9-21.4,14.6c-8.2,1.5-16.4,1.8-24.4,4.3c-4.4,1.4-8.7,3-11.1,7.4
		c-4.6-0.3-4.7-2.4-1.8-5.3c3.8-3.7,8.4-5.5,13.4-6.3c7.9-1.4,16-2.5,23.8-4.1c7.6-1.6,14.9-4,17.1-13c0.2-1,0.2-2.3,1.8-2
		C222.8,447.5,221.9,449.8,222.2,451.5z"/>
	<path class="st11" d="M80.3,487.5c-3.1,11.1-7.5,21.5-13.1,31.6c-2.5-1.2-0.5-2.9-0.5-4.4c0.4-5.9,3.8-10.8,5.8-16.2
		c1.2-3,2.5-6,3.7-9C77.7,489,77.3,484.7,80.3,487.5z"/>
	<path class="st12" d="M76.2,489.4c-1.4,9-6.2,16.9-9.4,25.2c-1.9-4.6,1.4-8.2,2.7-12C71,497.9,72.9,493.2,76.2,489.4z"/>
	<path class="st13" d="M218,526c-3.7,21.4-14.5,49.4-21.7,56.8C189.2,561.5,200.1,532.2,218,526z"/>
	<path class="st14" d="M157.5,514.6c-5.3,0-9.7-3.5-9.7-7.7s4.3-7.8,9.6-7.9c5.3-0.1,9.6,3.4,9.7,7.7
		C167,511,162.7,514.6,157.5,514.6z"/>
	<path class="st14" d="M116.5,497.6c-5.2,0.1-9.9-3.3-10.1-7.4s4.3-7.9,9.4-8.2c4.9-0.1,10,3.5,10.2,7.5
		C126.1,493.5,121.5,497.5,116.5,497.6z"/>
	<path class="st15" d="M118.3,475.7c-3.1-1-5.9-1.1-8.3,1.8c-1.3,1.6-3.2,0.8-4.8-0.1c-2-1.2-1-2.5,0.1-3.7c1.6-1.9-0.1-2.7-1.5-3.2
		c-1.8-0.8-2.5-1.7-1.3-3.4c0.9-1.3,2-2.4,3.8-1.5c3.1,1.6,5.6,1.5,7.6-1.9c1.3-2.3,3.5-1.1,5.4-0.3c3.1,1.3,0.6,2.8-0.1,4
		c-1.3,1.9-0.4,2.6,1.3,3.2c1.2,0.5,3.4,0.4,2.5,2.8C122.1,475.6,120.6,476.6,118.3,475.7z"/>
	<path class="st16" d="M128.4,495.8c-0.9,6.7-5.3,8.8-10.4,9.2c-5.4,0.4-10.1-1.4-12.5-7.5C115.3,503.8,120.5,503.5,128.4,495.8z"/>
	<path class="st17" d="M169.2,512.9c-0.5,6.2-4.7,8.8-9.9,9.6c-5.2,0.8-9.7-0.8-12.2-6.2c3.8,1.9,7.6,3.5,12,3
		C163.5,518.7,166.5,516.2,169.2,512.9z"/>
	<path class="st18" d="M190.9,511.7c-0.2,3.3-2.3,4.3-4.8,4.4s-4.9-0.8-5.2-3.7c-0.2-2.9,2.1-4.1,4.7-4.2
		C188.2,508,190,509.4,190.9,511.7z"/>
	<path class="st19" d="M181.5,503.8c-2.4-0.4-4.9-1.1-5-4c-0.1-2.9,2.4-4,4.9-4c2.5,0,5,0.8,5.2,3.8
		C186.6,502.6,184,503.2,181.5,503.8z"/>
	<path class="st20" d="M202.1,495.7c-0.6,2.8-2.7,3.8-5.3,3.7s-4.9-1.1-4.7-4.1c0.2-2.9,2.7-3.8,5.2-3.8
		C199.8,491.6,201.8,492.9,202.1,495.7z"/>
	<path class="st21" d="M202.7,512.7c-2.5-0.5-5-1.3-4.6-4.4c0.3-3,2.9-3.6,5.4-3.4c2.3,0.2,4.5,1.2,4.3,3.9
		C207.6,511.9,205.2,512.4,202.7,512.7z"/>
	<path class="st22" d="M160.1,492.7c2,0.6,4.5,0.8,4.8,3.4c0.1,1.2-1.4,1.6-2.5,1.4c-2-0.4-4.5-0.8-4.7-3.4
		C157.6,492.9,159.1,492.7,160.1,492.7z"/>
	<path class="st23" d="M168.8,486.3c1.8,0.6,4.2,0.8,4.7,2.8c0.4,1.6-1.3,2-2.6,1.7c-1.8-0.5-4.1-0.8-4.5-3
		C166.2,486.8,167.5,486.2,168.8,486.3z"/>
	<path class="st24" d="M134.1,484c2.8-1.3,4.9-0.8,6.8,1.3c0.6,0.8,0.4,1.7-0.5,1.9C137.6,487.7,135.4,487.1,134.1,484z"/>
	<path class="st25" d="M137.6,476c3-1.4,5.3-1.1,7.1,1.2c0.6,0.8,0.5,1.8-0.4,2C141.7,479.9,139.7,478.8,137.6,476z"/>
</g>
<g>
	<path class="st8" d="M180.3,276.8c-23.1,7.2-46.6,7.1-69.9,1.5c-56.9-13.8-98.2-59.4-107-117.2C-7.1,92.1,37.3,23.8,104.5,5.3
		c76.8-21.1,154.2,22.5,175.2,99.4c6.9,24.9,6.7,50-1,74.9c-12.5-14.9-27.1-27.7-40.6-41.7c-11.7-12.1-24-23.6-35.5-35.9
		c-1.5-1.6-3.5,1-4.3-1.4c-26.1-34.2-73.5-38.5-103.5-8.2c-29.7,29.9-27.1,77,6.7,103.2c1.9,1.5,4.1,2.6,5.2,4.8
		c0.5,2.2,2.1,3.7,3.7,5.2c22.4,22,43.9,44.8,67,66.2C179,273.2,180.3,274.6,180.3,276.8z"/>
	<path class="st9" d="M199.8,100.6c1.8,0.2,3.4,0.2,5,1.8c23.6,23.8,47.2,47.4,71,71c1.8,1.8,2.9,3.7,2.9,6.3
		c-11,39.3-35.4,67.8-71,86.9c-8.7,4.6-17.6,8.6-27.4,10.2c-23.5-23.2-47-46.5-70.5-69.9c-1.4-1.4-4.6-2.1-3.1-5.4
		c2.8-1.4,5.1,0.3,7.4,1.4c43.3,20.1,95.5-8.2,97.5-60.7c0.3-9.3-1.3-18.7-5.1-26.9c0.4,5.4,0.4,11.2,1.3,17.1
		c0.5,3.9-1.4,6.3-5.5,6.5c-5.9,0.4-12,1.2-15.5-7.8c-1.6,8.7-7.1,7.9-12.1,7.9c-7.6,0-15.3,0-22.9,0c-5.1,0-7.7-2.4-7.6-7.5
		c0-4.8-0.1-9.6,0-14.5c0.1-4.6,2.2-7.7,7-7.8c6.5-0.1,11.1-3.1,14.5-8.4c0.6-0.4,1.3-0.7,1.9-1c6-1.9,12.3-1.8,18.3-4.1
		C190.5,94.6,195.2,98.8,199.8,100.6z"/>
	<path class="st26" d="M199.8,100.6c-3.6-1-8,0.9-10.7-3.4c-0.4-0.6-1.6-1.3-2.2-0.4c-4.9,5.2-11.6,2.5-17.2,4
		c-0.7,0.7-1.6,0.9-1.8-0.3c-1.8-8.9-9.3-12.2-15.7-16.5c-2.5-1.7-4.1-1-4.2,2.2c-0.1,4,0,7.8-0.1,11.8c-0.1,4.3,2.4,5.2,6,4.5
		c3-0.5,5.9-1.7,8.9-2.1c1.4-0.2,4-1.9,4.2,1.6c-0.4,0.2-1.1,0.3-1.1,0.5c-1.5,8.2-8.1,8.4-14.4,8.7c-3.5,0.2-5,1.4-4.8,5.1
		c0.2,5.5,0.2,10.9,0,16.4c-0.1,3.5,0.6,5,4.6,4.9c9.4-0.3,18.7-0.2,28.2,0c3.4,0.1,5.6-0.3,4.6-4.5c-0.3-1.6,0-3.1,2.2-3
		c1.6,0.1,4.3-0.5,4.2,1.8c-0.4,7.5,4.8,5.6,8.8,5.6c8.4,0.1,8.5,0,6.5-8.2c-1.5-6.6-0.7-13.2-0.6-20.6
		c18.3,30.4,6.2,73.9-25.3,92.5c-24.1,14.1-48.5,13.4-73,0.4c-16.3-11-27.5-25.6-32.2-45.1c-7.6-31,9-64.9,39.1-79.3
		c28.4-13.6,65.5-5,84,19.5C198.6,97.8,199.1,99.3,199.8,100.6z"/>
	<path class="st13" d="M172.4,131.6c-3.2-6.4-5.7-12.9-5.1-20.4c0.4-5.7,2-7.9,7.8-7.6c6.5,0.3,13.2,0.1,19.7,0.1
		c4.3,0,6.3,1.7,6.3,6.3c-0.2,18,1.9,16.4-15.3,16.2C180.2,126.2,175.4,126.8,172.4,131.6z"/>
	<path class="st27" d="M166.7,101.8c-5-1-9.3,1.9-14,2.7c-4.2,0.6-6.6,0.3-6.2-5c0.4-5.5,0.1-10.9,0.1-16.4c0-2.4,0.2-4.1,3.3-2.5
		c7.5,3.7,13.8,9,19.2,15.5c1.5,1.7,0,3.1,0.5,4.5C168.6,101.1,167.6,101.5,166.7,101.8z"/>
	<path class="st28" d="M96.5,127.9c4.4,1.3,6.9,0.9,7.8-4.2c1-5.4,3.1-10.4,5.5-15.4c1.4-3.1,3-3.6,6-2.2c6.4,3,13.2,4.8,20.2,5.1
		c2.8,0.1,3.9,1.2,3.7,4c-0.2,3.7,0,7.4,0,11.1c-0.1,3.4,0.9,7.7-0.7,10.2c-1.6,2.5-6.1,0.7-9.3,0.9c-2.6,0.1-3.3,1.1-3.3,3.5
		c0,2.6,1,3.2,3.4,3.5c3.2,0.3,7.6-2,9.5,1.6c1.3,2.7,0.4,6.4,0.4,9.7c0,4.6,1.3,10.1-0.7,13.5c-1.9,3.3-8,1.5-12.2,2.8
		c-2.2,0.7-4.6,1.4-6.9,2.2c-9.1,3.2-9.1,3.2-12.5-6.2c-0.9-2.5-1.7-4.9-2.5-7.5c-1-3-3.5-2.2-5.6-1.9c-3.1,0.4-1.3,2.6-1,4.1
		c1.1,5.5,3.3,10.5,6,15.2c2.1,3.7-0.5,4.4-2.5,6.1c-2.2,1.9-4,1.9-6-0.4c-8.7-10.1-14.2-21.4-15.6-34.7c-0.2-2.1-0.9-4.6,2.8-4.5
		c2.7,0.1,2.5-1.8,2.5-3.6c0-1.6,0-3.3-2.1-3.2c-3.3,0.2-3.3-1.6-3.1-4.1c1.4-13.6,7.2-25.1,16-35.2c2.2-2.7,4.1-1.4,6.1,0.2
		c1.9,1.5,3.7,2.5,2,5.7C100.4,111.5,97.7,119.3,96.5,127.9z"/>
	<path class="st29" d="M146.5,157.1c0-12.7,0-12.7,13.1-12.7c6.7,0,13.5,0.2,20.2-0.1c3.6-0.1,4.6,1.2,4.1,4.6
		c-1.5,8.6-3.4,17-7.3,25c-1.6,3.3-3.1,3.2-6,2c-6-2.6-12.2-4.7-18.9-4.9c-4.3-0.1-5.8-1.7-5.2-5.9
		C146.8,162.5,146.5,159.8,146.5,157.1z"/>
	<path class="st30" d="M198,144.4c9.4,0,9.4,0,7.7,8.4c-2.4,11.4-7.1,21.4-14.8,30.2c-1.8,2.1-3.1,3.9-6.2,1.3
		c-2.7-2.1-4.3-3.5-2.1-7.3c4.3-7.6,7.4-16.1,7.6-24.7C190.4,145.4,192.6,143,198,144.4z"/>
	<path class="st31" d="M146.5,189.4c0-13.4,0-13.4,13.3-10.1c3.5,0.9,8.7,1.2,9.6,4.3c1.1,3.3-3.5,5.8-6,8.4c-3.7,4-8.2,7-13.2,9.4
		c-2.6,1.3-4.1,1.2-3.9-2.4C146.6,195.8,146.5,192.6,146.5,189.4z"/>
	<path class="st32" d="M115.7,183.6c1.7-0.9,2.7-1.3,3.6-1.8c5.8-2.8,13.3-5.9,18.1-3.9c5.6,2.4,1.2,10.7,2.1,16.4
		c0.4,2.6,0.1,5.1,0.1,8.5C129.3,198.9,122.2,192.2,115.7,183.6z"/>
	<path class="st33" d="M116.1,98.7c6.7-9.5,13.5-15,23.7-19c0,7.8,0,15.2,0,22.7c0,3.4-2.5,2.5-4.2,2.1
		C128.9,103.4,122.3,102.2,116.1,98.7z"/>
	<path class="st34" d="M103.9,190.9c6.9-5,7.2-4.9,19.2,10.2C115.3,198.7,109.5,195.3,103.9,190.9z"/>
	<path class="st35" d="M182.8,190.4c-5.7,4.9-11.5,8-19.3,10.6c4.5-4.8,8-8.5,11.5-12.2C178.3,185.2,179.8,189.4,182.8,190.4z"/>
	<path class="st36" d="M103.1,91.7c6.4-5,12.2-8.1,19.8-11c-4.6,5-8.2,9.4-12.3,13.3C107.9,96.5,106.6,92.2,103.1,91.7z"/>
	<path class="st37" d="M164.6,80.7c5.8,3.3,11.5,6.5,17.7,10.1c-3.1,3.4-5.4,5.4-8.8,0.7c-2.7-3.6-6.2-6.6-9.3-10
		C164.3,81.3,164.5,81.1,164.6,80.7z"/>
	<path class="st6" d="M118.6,161.7c-5-9.7-13.4-7.2-20.7-7c-6.4,0.2-8.9-1.5-8.7-8.4c0.5-15.7-1.5-14,13.9-14.1c4.6,0,9.1,0,13.7,0
		c1.8,0,3.5,0.1,4.8,1.6c1.5,1.8,1.5,18.7-0.4,19.5C117.4,155.1,119.4,158.1,118.6,161.7z"/>
</g>
<g>
	<path class="st8" d="M178.8,1018.1C129.5,1031,84.9,1021,47.5,987C5.5,949-9,900.5,5.5,845.8c13.9-52.6,49.1-86.9,101.9-100.4
		c95.8-24.5,185.1,54.1,174.9,152.4c-0.2,1.9-0.9,3.9-1.3,5.7c-4.2,1.8-5.9-1.9-7.9-4c-24.8-24.7-49.4-49.3-74.1-74
		c-2.1-2.1-4.2-4.5-7.1-5.7c-1.6-1.5-2.3-3.9-4.3-4.9c-1.1-0.9-2.1-1.8-3.1-2.8c-1.4-1.5-2.9-2.9-4.4-4.3c-1.2-1.1-2.4-2.1-3.5-3.1
		c-3-2.6-6.5-3.3-10.3-3.3c-16.3,0-32.6,0-48.9,0c-1.1,0-2.1,0-3.2,0.2c-5.3,0.9-6.1,2.7-3.9,7.6c0.8,1.6,1.7,3,1.9,4.8
		c-1.7,4.1-4.2,0.8-6.3,0.6c-1.7-0.6-2.4-2.5-4.1-3.5c-0.3,4.6,5.3,7.2,3.8,11.9c-3,1.8-4.3-2.3-6.8-2c-1.5-0.6-2.3-2.6-5.9-3.3
		c12,19.5,21.7,38.7,33.9,56.4c1.4,2.1,3.5,3.8,3.8,6.4c-1,2.6-3.5,3-5.7,4c-27.6,13.2-31.7,50.6-7.7,69.5c1.8,1.5,4.1,2.6,5.4,4.7
		c0.5,2.6,2.6,4,4.3,5.6c15.9,15.9,31.7,31.7,47.6,47.6C176,1013.9,178.2,1015.4,178.8,1018.1z"/>
	<path class="st9" d="M99.5,820.8c3-1.7,3.3,2.8,5.8,2.4c3.3,0.1,4.1,3,5.4,5.1c6.9,11.7,13.8,23.3,20.6,35.1c1.1,1.9,2,3.9,4.1,5.1
		c-3.6-7.2-7.8-14.1-11.9-21c-5.1-8.9-10.5-17.7-15.6-26.6c-1.2-1.9-3.2-3.9-1.9-6.5c2.4-2.3,3.2,1.9,5.3,1.2c3.4,0.9,4.5,4,6,6.5
		c7.9,13.1,15.7,26.3,23.3,39.6c1.8,3.1,2.9,7,7.6,8.5c0.1-2.8-1.6-4.5-2.7-6.4c-5.9-10.7-12.7-21-18.4-31.7c-3-5.6-2.1-7.2,3.9-7.5
		c7.2-0.3,14.5-0.3,21.7,0c5.9,0.3,7,2.4,4.2,7.6c-1.6,3.1-3.6,6-5.4,9c-1.1,2-2.8,4.1-0.9,7.2c6.1-9.1,10.9-18.7,16.5-27.7
		c3.4-5.5,5.1-12.1,11-15.9c1.5,0.6,2.7,1.7,3.3,3.3c1.2,2.7-0.9,4.6-1.9,6.5c-6.8,11.7-13.5,23.5-20.5,35.1
		c-1.3,2.3-2.8,4.4-3.1,7.2c7.9-12.5,15.1-25.5,22.8-38.3c1.6-2.7,2.4-6.2,6.1-7.2c1.5,0.5,2.5,1.6,3,3c1.6,3-0.9,4.9-2,7.1
		c-7.1,12.2-14.2,24.6-21.5,36.8c-1.5,2.5-3.6,4.8-3.1,9.2c4.7-5.5,7.1-11.3,10.2-16.5c5.1-8.6,10.1-17.4,15.2-26
		c1.3-2.1,2.3-4.8,5.3-5.5c3.5-1.6,4.6,1.8,6.2,3.4c25.6,25.4,51.1,50.9,76.7,76.4c1.8,1.8,3.2,4.3,6.2,4.4
		c-2.4,22-10.9,41.6-23.5,59.6c-18.3,26.3-43.1,44.1-73.6,54c-1.6,0.5-3.4,0.6-5,1.1c-18.9-18.7-37.9-37.4-56.7-56.1
		c-0.8-0.8-0.9-1.5,0.1-2.1c3.2-1.6,5.9,0.5,8.8,1.3c17.4,4.3,35-1.6,44.3-15.1c10.4-15,10.9-33.2,0.9-47.3
		c-9.7-13.5-23-19.7-39.7-17.7c-2.1,0.2-4.4,0.8-6.2-0.9c-2-1.3-4.1-2.6-4.3-5.4c1.5-3-0.1-5.4-1.6-7.9c-7.6-13-15.3-26-22.8-39
		C100.3,825.7,97.9,823.8,99.5,820.8z"/>
	<path class="st38" d="M178.1,804.7c-9.2,15.8-18.4,31.6-27.6,47.4c-4.3-3.9-3.6-7.5-0.9-11.7c3-4.4,5.5-9.2,8.5-14.5
		c-11.3,0-21.5,0-32.8,0c9,15.4,17.7,30.4,26.5,45.4c-6.6,1.1-6.8,1.1-9.8-4c-10.3-17.3-20.6-34.5-30.8-51.7
		c-1.2-2.3-2.4-4.6-3.6-6.9c-2.7-4.8-1.1-8.6,4.5-8.6c19.8-0.2,39.6-0.1,59.4-0.1C174.7,800,176.4,802.3,178.1,804.7z"/>
	<path class="st39" d="M130.2,880.2c16.8-3.4,31.7-0.2,43.7,12.7c13.2,14.3,14.9,35.5,4.4,52.1c-10.1,15.9-29.8,23.2-48.1,17.7
		c-2.7-0.9-5.4-1.8-8-2.8c-19.5-14.2-26.3-29.5-21.3-48.9C104.9,895.3,115.6,885.8,130.2,880.2z"/>
	<path class="st40" d="M99.5,820.8c9.4,16.3,18.7,32.6,28.3,48.7c2,3.3,1.2,4.4-1.9,5.3c-2.5-0.1-3-2.3-4-3.9
		c-9.5-16.3-19.2-32.6-28.7-48.9c-0.4-0.8-0.9-1.5-1.3-2.3c-1.1-1.9-0.4-3.3,1.2-4.5c2.6-1.9,2.7,0.8,3.6,1.9
		C97.7,818.3,98.7,819.6,99.5,820.8z"/>
	<path class="st41" d="M192,819.4c-9.1,15.6-18.2,31.2-27.5,46.8c-0.9,1.5-1.3,5-4,3.5c-2.3-1.3-2.6-3.9-0.9-6.8
		c9.5-16.1,18.9-32.4,28.2-48.6C190.7,814.9,192.3,816.3,192,819.4z"/>
	<path class="st42" d="M106,814.4c10.9,18.8,21.9,37.6,32.8,56.6c-4,2.5-5.3-0.4-6.8-3c-7.6-13-15.2-26-22.8-38.8c-1.2-2-2.6-4-4-6
		c-1.6-3-3.2-6.1-4.8-9.1c-0.9-1.6-2.7-3.5-0.1-5c3-1.7,2.6,1.8,3.8,2.9C104.8,812.5,105.3,813.5,106,814.4z"/>
	<path class="st43" d="M184.9,811.4c-9.8,16.4-19.4,32.9-29.2,49.3c-3.6-2.6-2.1-4.9-0.5-7.6c8.8-15,17.6-30.1,26.4-45.2
		C183.2,808.5,184.2,809.6,184.9,811.4z"/>
	<path class="st44" d="M142,805.5c7.8,0,15.8,0,23.6,0c1.3,0,3.6-0.8,3.5,1.5c0,1.6-1.3,3.2-3.4,3.2c-1.7,0-3.5,0-5.3,0
		c-12.9,0-25.8,0-38.7,0c-1.5,0-3.1,0-4.6-0.1c-1.8-0.1-2.9-1.6-2.9-3c-0.1-2.4,2.1-1.6,3.4-1.6C125.8,805.4,133.9,805.5,142,805.5z
		"/>
	<path class="st45" d="M141.5,814.3c6.3,0,12.7-0.1,19,0c1.3,0,3.5-0.9,3.5,1.4c0,1.7-1.3,3.2-3.4,3.3c-1.1,0.1-2.1,0.1-3.2,0.1
		c-10.8,0-21.8,0-32.6,0c-2.7,0-5.4-0.8-5.1-3.5c0.2-2.7,3.2-1.2,4.9-1.3C130.2,814.1,135.8,814.3,141.5,814.3z"/>
	<path class="st46" d="M104.7,921.9c-0.1-20.8,16.6-37.8,37.2-38c20.7-0.1,37.6,16.7,37.8,37.4c0.1,21-16.2,37.5-37.2,37.8
		C121.5,959.4,104.8,942.7,104.7,921.9z"/>
	<path class="st47" d="M175,921.5c0.1,18.3-14.6,33.1-32.7,33c-18.1,0-33-15-32.9-33c0.1-17.8,14.8-32.5,32.6-32.7
		C160.2,888.7,174.9,903.3,175,921.5z"/>
</g>
<g>
	<g>
		<line class="st48" x1="323.4" y1="518.5" x2="335.9" y2="518.5"/>
		<line class="st49" x1="361.7" y1="518.5" x2="761" y2="518.5"/>
		<line class="st48" x1="773.9" y1="518.5" x2="786.4" y2="518.5"/>
	</g>
</g>
<g>
	<g>
		<line class="st48" x1="323.4" y1="213.8" x2="334.9" y2="218.7"/>
		<line class="st50" x1="358.8" y1="229.1" x2="777.5" y2="410.9"/>
		<line class="st48" x1="789.5" y1="416.1" x2="800.9" y2="421"/>
	</g>
</g>
<g>
	<g>
		<line class="st48" x1="321.7" y1="823.3" x2="333.2" y2="818.3"/>
		<line class="st50" x1="357.1" y1="808" x2="775.8" y2="626.2"/>
		<line class="st48" x1="787.8" y1="621" x2="799.2" y2="616"/>
	</g>
</g>
</svg>
