<?xml version="1.0" encoding="utf-8"?>
<!-- Generator: Adobe Illustrator 21.0.2, SVG Export Plug-In . SVG Version: 6.00 Build 0)  -->
<svg version="1.1" id="Layer_1" xmlns="http://www.w3.org/2000/svg" xmlns:xlink="http://www.w3.org/1999/xlink" x="0px" y="0px"
	 viewBox="0 0 264 264" style="enable-background:new 0 0 264 264;" xml:space="preserve">
<style type="text/css">
	.st0{fill:#114F68;}
	.st1{fill:#012136;}
	.st2{fill:#FEFEFE;}
	.st3{fill:#F0F3F3;}
	.st4{fill:#192E41;}
	.st5{fill:#B1C1C6;}
	.st6{fill:#FBFBFB;}
	.st7{fill:#062438;}
	.st8{fill:#0B273B;}
	.st9{fill:#41505E;}
	.st10{fill:#3D4C5A;}
	.st11{fill:#152E41;}
	.st12{fill:#122C3F;}
	.st13{fill:#1D3547;}
	.st14{fill:#0A2438;}
	.st15{fill:#4C5C69;}
	.st16{fill:#42525F;}
	.st17{fill:#2E404F;}
	.st18{fill:#233749;}
</style>
<path class="st0" d="M167.7,258.9c-43.4,11.7-83.3,4-118.1-24.1c-75-60.4-62.5-176.3,23.1-220.2c75.7-38.9,169,5.2,187.9,88.7
	c1.9,8.4,3.3,16.8,2.7,25.4c-3.6,1-5-2.1-6.8-4c-15.6-15.4-31.1-30.9-46.5-46.5c-1.5-1.5-2.7-2.5-4.9-2.1c-1.1-0.8-2.2-1.2-2.9,0.4
	c-3,7.1-9.4,9.2-16,10.7c-7.3,1.7-14.9,2.4-22.2,4c-3.4,0.7-6.7,1.8-9.6,3.8c-2.2,1.5-3,3.2-1.3,5.6c0.1,1.4-0.5,2.3-1.6,3
	c-7.9-0.3-14.7-3.2-18.8-10.1C123.3,77.3,102,74.1,88.3,87c-5.1,4.8-9.4,10.2-11.3,17.1c-0.5,1.9-1,4-2.9,5.2
	c-3.1-1.1-2.3,2.5-3.9,3.2c-3.8,7-7.8,13.8-8.7,22c0,1.6-0.1,3.2,0.2,4.9c-1.7,5.6-2.8,11,2.5,15.4c15.2,15.6,30.5,31.2,46.5,46.1
	c18.3,17.1,35.6,35.4,53.4,53.1C165.7,255.4,167.4,256.7,167.7,258.9z"/>
<path class="st1" d="M151.4,103.4c0.4-1,0.8-1.9,1.3-2.9c0.2-4.9,4.2-6,7.7-7.5c7.6-3.2,15.8-3.5,23.8-4.8
	c7.9-1.2,15.1-3.5,19.4-10.9c0.4-0.7,1.2-1,2-1.2c2.3-3.2,3.6-0.4,5,1c15.9,15.8,31.7,31.6,47.6,47.4c1.6,1.6,2.9,3.5,5.1,4.3
	c1.5,18-1.8,35.3-8.7,51.8c-16.5,39.8-45.3,66.3-86.9,78.3c-0.8-0.6-1.7-1.1-2.4-1.8c-33.2-32.8-66.5-65.7-99.7-98.5
	c-0.9-0.8-1.5-1.9-2.2-2.9c10.2-2.8,18.1-8.9,24.8-16.8c2.8-3.3,6.5-3.4,9.5,0.1c3.9,4.4,8.8,5.6,14.3,5.4c4.9-0.2,9.8-0.1,14.4,2.1
	c2,1,4.4,1.9,5.1,4.1c2.4,7.1,8.2,9.5,14.7,10.3c6.1,0.7,8.2,3.6,8.5,9.5c0.3,6.9,1.7,13.8,4.4,20.3c1.9,4.6,4.6,8.8,9.6,10.6
	c5,1.8,7.3,0,7.1-5.3c-0.5-11.3-0.6-22.5,3.8-33.2c3.3-8.1,7.5-15.8,15.8-19.5c8-3.5,7.9-10.2,8.3-16.8c0.4-6.8-3-11.8-8.8-15
	c-6.5-3.5-13.6-4.1-20.8-3.5c-6.1,0.5-12.2,1.3-18.2-1C154.2,106.3,152,105.8,151.4,103.4z"/>
<path class="st2" d="M151.4,103.4c6.3,3.6,12.9,4.2,20,3.1c7.6-1.1,15.1-0.7,22.2,2.5c9.3,4.2,12.7,9.6,11.8,19.8
	c-0.6,6.8-1.4,12.7-9.6,16.3c-11.1,4.9-14.9,16.2-17.3,27.4c-1.8,8.2-2,16.7-0.6,25c0.9,5-1.3,6.2-5.4,6.4
	c-5.3,0.2-8.9-2.5-11.7-6.6c-5.9-8.8-7.4-18.9-7.8-29.1c-0.2-3.7-0.9-5-5-5.4c-7.7-0.8-15-2.2-17.9-11.8c-1.2-4-7.4-5-12.3-4.9
	c-3.5,0.1-6.9,0.3-10.4,0.2c-3.6-0.1-6.7-1.7-9.3-4.1c-5.9-5.5-5.6-5.4-11.4,0.9c-6.3,6.8-13,13.1-23.3,12.7
	c-5.6-5-5.9-7.1-2.2-16.8c3-10.2,6.8-20.1,12.2-29.4c3.1-7.4,5.1-15.2,11.1-21.3c11.2-11.4,26.3-13.9,40-6.1
	c2.9,1.7,6.1,3.6,7.1,6.5C134.7,98.4,143.4,100.4,151.4,103.4z"/>
<path class="st3" d="M205.6,76c-3.1,9.7-11.3,12-19.9,13.6c-7.6,1.4-15.3,1.7-22.7,4c-4.1,1.3-8.1,2.8-10.3,6.9
	c-4.3-0.3-4.4-2.2-1.7-4.9c3.5-3.4,7.8-5.1,12.5-5.9c7.4-1.3,14.9-2.3,22.2-3.8c7.1-1.5,13.9-3.7,15.9-12.1c0.2-0.9,0.2-2.1,1.7-1.9
	C206.1,72.2,205.3,74.4,205.6,76z"/>
<path class="st4" d="M73.4,109.5c-2.9,10.3-7,20-12.2,29.4c-2.3-1.1-0.5-2.7-0.5-4.1c0.4-5.5,3.5-10.1,5.4-15.1
	c1.1-2.8,2.3-5.6,3.4-8.4C71,110.9,70.6,106.9,73.4,109.5z"/>
<path class="st5" d="M69.6,111.3c-1.3,8.4-5.8,15.7-8.8,23.5c-1.8-4.3,1.3-7.6,2.5-11.2C64.7,119.2,66.5,114.8,69.6,111.3z"/>
<path class="st6" d="M201.7,145.4c-3.4,19.9-13.5,46-20.2,52.9C174.8,178.4,185,151.1,201.7,145.4z"/>
<path class="st7" d="M145.3,134.7c-4.9,0-9-3.3-9-7.2c0-3.9,4-7.3,8.9-7.4c4.9-0.1,8.9,3.2,9,7.2
	C154.2,131.4,150.2,134.7,145.3,134.7z"/>
<path class="st7" d="M107.1,118.9c-4.8,0.1-9.2-3.1-9.4-6.9c-0.2-3.8,4-7.4,8.8-7.6c4.6-0.1,9.3,3.3,9.5,7
	C116.1,115.1,111.8,118.8,107.1,118.9z"/>
<path class="st8" d="M108.8,98.5c-2.9-0.9-5.5-1-7.7,1.7c-1.2,1.5-3,0.7-4.5-0.1c-1.9-1.1-0.9-2.3,0.1-3.4c1.5-1.8-0.1-2.5-1.4-3
	c-1.7-0.7-2.3-1.6-1.2-3.2c0.8-1.2,1.9-2.2,3.5-1.4c2.9,1.5,5.2,1.4,7.1-1.8c1.2-2.1,3.3-1,5-0.3c2.9,1.2,0.6,2.6-0.1,3.7
	c-1.2,1.8-0.4,2.4,1.2,3c1.1,0.5,3.2,0.4,2.3,2.6C112.3,98.4,110.9,99.3,108.8,98.5z"/>
<path class="st9" d="M118.2,117.2c-0.8,6.2-4.9,8.2-9.7,8.6c-5,0.4-9.4-1.3-11.6-7C106,124.7,110.8,124.4,118.2,117.2z"/>
<path class="st10" d="M156.2,133.2c-0.5,5.8-4.4,8.2-9.2,8.9c-4.8,0.7-9-0.7-11.4-5.8c3.5,1.8,7.1,3.3,11.2,2.8
	C150.9,138.6,153.7,136.2,156.2,133.2z"/>
<path class="st11" d="M176.4,132c-0.2,3.1-2.1,4-4.5,4.1c-2.4,0.1-4.6-0.7-4.8-3.4c-0.2-2.7,2-3.8,4.4-3.9
	C173.9,128.6,175.6,129.9,176.4,132z"/>
<path class="st12" d="M167.7,124.7c-2.2-0.4-4.6-1-4.7-3.7c-0.1-2.7,2.2-3.7,4.6-3.7c2.3,0,4.7,0.7,4.8,3.5
	C172.4,123.6,170,124.1,167.7,124.7z"/>
<path class="st13" d="M186.9,117.1c-0.6,2.6-2.5,3.5-4.9,3.4c-2.4-0.1-4.6-1-4.4-3.8c0.2-2.7,2.5-3.5,4.8-3.5
	C184.7,113.3,186.6,114.5,186.9,117.1z"/>
<path class="st14" d="M187.4,133c-2.3-0.5-4.7-1.2-4.3-4.1c0.3-2.8,2.7-3.4,5-3.2c2.1,0.2,4.2,1.1,4,3.6
	C192,132.2,189.7,132.7,187.4,133z"/>
<path class="st15" d="M147.7,114.3c1.9,0.6,4.2,0.7,4.5,3.2c0.1,1.1-1.3,1.5-2.3,1.3c-1.9-0.4-4.2-0.7-4.4-3.2
	C145.4,114.5,146.8,114.3,147.7,114.3z"/>
<path class="st16" d="M155.8,108.4c1.7,0.6,3.9,0.7,4.4,2.6c0.4,1.5-1.2,1.9-2.4,1.6c-1.7-0.5-3.8-0.7-4.2-2.8
	C153.4,108.8,154.6,108.3,155.8,108.4z"/>
<path class="st17" d="M123.5,106.2c2.6-1.2,4.6-0.7,6.3,1.2c0.6,0.7,0.4,1.6-0.5,1.8C126.8,109.7,124.7,109.1,123.5,106.2z"/>
<path class="st18" d="M126.8,98.8c2.8-1.3,4.9-1,6.6,1.1c0.6,0.7,0.5,1.7-0.4,1.9C130.6,102.4,128.7,101.4,126.8,98.8z"/>
</svg>
