<?xml version="1.0" encoding="utf-8"?>
<!-- Generator: Adobe Illustrator 21.0.2, SVG Export Plug-In . SVG Version: 6.00 Build 0)  -->
<svg version="1.1" id="Layer_1" xmlns="http://www.w3.org/2000/svg" xmlns:xlink="http://www.w3.org/1999/xlink" x="0px" y="0px"
	 viewBox="0 0 264 263" style="enable-background:new 0 0 264 263;" xml:space="preserve">
<style type="text/css">
	.st0{fill:#114F68;}
	.st1{fill:#012136;}
	.st2{fill:#FBFCFB;}
	.st3{fill:#FBFBFB;}
	.st4{fill:#072539;}
	.st5{fill:#022136;}
	.st6{fill:#032237;}
	.st7{fill:#042237;}
	.st8{fill:#07253A;}
	.st9{fill:#032135;}
	.st10{fill:#042236;}
	.st11{fill:#112B3D;}
	.st12{fill:#193043;}
	.st13{fill:#172F41;}
	.st14{fill:#142C3E;}
	.st15{fill:#FDFDFD;}
</style>
<path class="st0" d="M166.2,258.2c-21.6,6.7-43.5,6.6-65.2,1.4C47.9,246.7,9.3,204.2,1.1,150.2C-8.7,85.8,32.7,22.1,95.5,4.8
	c71.7-19.7,143.9,21,163.5,92.8c6.4,23.2,6.3,46.7-0.9,69.9c-11.7-13.9-25.3-25.9-37.9-38.9c-10.9-11.3-22.4-22-33.1-33.5
	c-1.4-1.5-3.3,0.9-4-1.3c-24.4-31.9-68.6-35.9-96.6-7.7c-27.7,27.9-25.3,71.9,6.3,96.3c1.8,1.4,3.8,2.4,4.9,4.5
	c0.5,2.1,2,3.5,3.5,4.9c20.9,20.5,41,41.8,62.5,61.8C165,254.8,166.2,256.1,166.2,258.2z"/>
<path class="st1" d="M184.4,93.7c1.7,0.2,3.2,0.2,4.7,1.7c22,22.2,44.1,44.2,66.3,66.3c1.7,1.7,2.7,3.5,2.7,5.9
	c-10.3,36.7-33,63.3-66.3,81.1c-8.1,4.3-16.4,8-25.6,9.5c-21.9-21.7-43.9-43.4-65.8-65.2c-1.3-1.3-4.3-2-2.9-5
	c2.6-1.3,4.8,0.3,6.9,1.3c40.4,18.8,89.1-7.7,91-56.7c0.3-8.7-1.2-17.5-4.8-25.1c0.4,5,0.4,10.5,1.2,16c0.5,3.6-1.3,5.9-5.1,6.1
	c-5.5,0.4-11.2,1.1-14.5-7.3c-1.5,8.1-6.6,7.4-11.3,7.4c-7.1,0-14.3,0-21.4,0c-4.8,0-7.2-2.2-7.1-7c0-4.5-0.1-9,0-13.5
	c0.1-4.3,2.1-7.2,6.5-7.3c6.1-0.1,10.4-2.9,13.5-7.8c0.6-0.4,1.2-0.7,1.8-0.9c5.6-1.8,11.5-1.7,17.1-3.8
	C175.7,88.1,180.1,92.1,184.4,93.7z"/>
<path class="st2" d="M184.4,93.7c-3.4-0.9-7.5,0.8-10-3.2c-0.4-0.6-1.5-1.2-2.1-0.4c-4.6,4.9-10.8,2.3-16.1,3.7
	c-0.7,0.7-1.5,0.8-1.7-0.3c-1.7-8.3-8.7-11.4-14.7-15.4c-2.3-1.6-3.8-0.9-3.9,2.1c-0.1,3.7,0,7.3-0.1,11c-0.1,4,2.2,4.9,5.6,4.2
	c2.8-0.5,5.5-1.6,8.3-2c1.3-0.2,3.7-1.8,3.9,1.5c-0.4,0.2-1,0.3-1,0.5c-1.4,7.7-7.6,7.8-13.4,8.1c-3.3,0.2-4.7,1.3-4.5,4.8
	c0.2,5.1,0.2,10.2,0,15.3c-0.1,3.3,0.6,4.7,4.3,4.6c8.8-0.3,17.5-0.2,26.3,0c3.2,0.1,5.2-0.3,4.3-4.2c-0.3-1.5,0-2.9,2.1-2.8
	c1.5,0.1,4-0.5,3.9,1.7c-0.4,7,4.5,5.2,8.2,5.2c7.8,0.1,7.9,0,6.1-7.7c-1.4-6.2-0.7-12.3-0.6-19.2c17.1,28.4,5.8,69-23.6,86.3
	c-22.5,13.2-45.3,12.5-68.1,0.4c-15.2-10.3-25.7-23.9-30.1-42.1c-7.1-28.9,8.4-60.6,36.5-74c26.5-12.7,61.1-4.7,78.4,18.2
	C183.3,91.1,183.8,92.5,184.4,93.7z"/>
<path class="st3" d="M158.8,122.7c-3-6-5.3-12-4.8-19c0.4-5.3,1.9-7.4,7.3-7.1c6.1,0.3,12.3,0.1,18.4,0.1c4,0,5.9,1.6,5.9,5.9
	c-0.2,16.8,1.8,15.3-14.3,15.1C166.1,117.6,161.6,118.2,158.8,122.7z"/>
<path class="st4" d="M153.5,94.9c-4.7-0.9-8.7,1.8-13.1,2.5c-3.9,0.6-6.2,0.3-5.8-4.7c0.4-5.1,0.1-10.2,0.1-15.3
	c0-2.2,0.2-3.8,3.1-2.3c7,3.5,12.9,8.4,17.9,14.5c1.4,1.6,0,2.9,0.5,4.2C155.3,94.2,154.4,94.6,153.5,94.9z"/>
<path class="st5" d="M88,119.2c4.1,1.2,6.4,0.8,7.3-3.9c0.9-5,2.9-9.7,5.1-14.4c1.3-2.9,2.8-3.4,5.6-2.1c6,2.8,12.3,4.5,18.9,4.8
	c2.6,0.1,3.6,1.1,3.5,3.7c-0.2,3.5,0,6.9,0,10.4c-0.1,3.2,0.8,7.2-0.7,9.5c-1.5,2.3-5.7,0.7-8.7,0.8c-2.4,0.1-3.1,1-3.1,3.3
	c0,2.4,0.9,3,3.2,3.3c3,0.3,7.1-1.9,8.9,1.5c1.2,2.5,0.4,6,0.4,9.1c0,4.3,1.2,9.4-0.7,12.6c-1.8,3.1-7.5,1.4-11.4,2.6
	c-2.1,0.7-4.3,1.3-6.4,2.1c-8.5,3-8.5,3-11.7-5.8c-0.8-2.3-1.6-4.6-2.3-7c-0.9-2.8-3.3-2.1-5.2-1.8c-2.9,0.4-1.2,2.4-0.9,3.8
	c1,5.1,3.1,9.8,5.6,14.2c2,3.5-0.5,4.1-2.3,5.7c-2.1,1.8-3.7,1.8-5.6-0.4c-8.1-9.4-13.3-20-14.6-32.4c-0.2-2-0.8-4.3,2.6-4.2
	c2.5,0.1,2.3-1.7,2.3-3.4c0-1.5,0-3.1-2-3c-3.1,0.2-3.1-1.5-2.9-3.8c1.3-12.7,6.7-23.4,14.9-32.9c2.1-2.5,3.8-1.3,5.7,0.2
	c1.8,1.4,3.5,2.3,1.9,5.3C91.6,103.9,89.1,111.2,88,119.2z"/>
<path class="st6" d="M134.7,146.5c0-11.9,0-11.9,12.2-11.9c6.3,0,12.6,0.2,18.9-0.1c3.4-0.1,4.3,1.1,3.8,4.3
	c-1.4,8-3.2,15.9-6.8,23.3c-1.5,3.1-2.9,3-5.6,1.9c-5.6-2.4-11.4-4.4-17.6-4.6c-4-0.1-5.4-1.6-4.9-5.5
	C134.9,151.5,134.7,149,134.7,146.5z"/>
<path class="st7" d="M182.7,134.6c8.8,0,8.8,0,7.2,7.8c-2.2,10.6-6.6,20-13.8,28.2c-1.7,2-2.9,3.6-5.8,1.2c-2.5-2-4-3.3-2-6.8
	c4-7.1,6.9-15,7.1-23.1C175.6,135.6,177.7,133.3,182.7,134.6z"/>
<path class="st8" d="M134.7,176.6c0-12.5,0-12.5,12.4-9.4c3.3,0.8,8.1,1.1,9,4c1,3.1-3.3,5.4-5.6,7.8c-3.5,3.7-7.7,6.5-12.3,8.8
	c-2.4,1.2-3.8,1.1-3.6-2.2C134.8,182.6,134.7,179.6,134.7,176.6z"/>
<path class="st9" d="M105.9,171.2c1.6-0.8,2.5-1.2,3.4-1.7c5.4-2.6,12.4-5.5,16.9-3.6c5.2,2.2,1.1,10,2,15.3
	c0.4,2.4,0.1,4.8,0.1,7.9C118.6,185.5,112,179.2,105.9,171.2z"/>
<path class="st10" d="M106.3,92c6.3-8.9,12.6-14,22.1-17.7c0,7.3,0,14.2,0,21.2c0,3.2-2.3,2.3-3.9,2C118.2,96.4,112.1,95.2,106.3,92
	z"/>
<path class="st11" d="M94.9,178c6.4-4.7,6.7-4.6,17.9,9.5C105.5,185.3,100.1,182.1,94.9,178z"/>
<path class="st12" d="M168.5,177.6c-5.3,4.6-10.7,7.5-18,9.9c4.2-4.5,7.5-7.9,10.7-11.4C164.3,172.7,165.7,176.6,168.5,177.6z"/>
<path class="st13" d="M94.2,85.4c6-4.7,11.4-7.6,18.5-10.3c-4.3,4.7-7.7,8.8-11.5,12.4C98.6,89.9,97.4,85.9,94.2,85.4z"/>
<path class="st14" d="M151.6,75.2c5.4,3.1,10.7,6.1,16.5,9.4c-2.9,3.2-5,5-8.2,0.7c-2.5-3.4-5.8-6.2-8.7-9.3
	C151.3,75.7,151.5,75.5,151.6,75.2z"/>
<path class="st15" d="M108.6,150.8c-4.7-9.1-12.5-6.7-19.3-6.5c-6,0.2-8.3-1.4-8.1-7.8c0.5-14.7-1.4-13.1,13-13.2
	c4.3,0,8.5,0,12.8,0c1.7,0,3.3,0.1,4.5,1.5c1.4,1.7,1.4,17.5-0.4,18.2C107.5,144.6,109.4,147.4,108.6,150.8z"/>
</svg>
