<?xml version="1.0" encoding="utf-8"?>
<!-- Generator: Adobe Illustrator 21.0.2, SVG Export Plug-In . SVG Version: 6.00 Build 0)  -->
<svg version="1.1" id="Layer_1" xmlns="http://www.w3.org/2000/svg" xmlns:xlink="http://www.w3.org/1999/xlink" x="0px" y="0px"
	 viewBox="0 0 489 438" style="enable-background:new 0 0 489 438;" xml:space="preserve">
<style type="text/css">
	.st0{fill:#30667B;}
	.st1{fill:#012136;}
	.st2{fill:#FEFEFE;}
	.st3{fill:#F0F3F3;}
	.st4{fill:#192E41;}
	.st5{fill:#B1C1C6;}
	.st6{fill:#FBFBFB;}
	.st7{fill:#062438;}
	.st8{fill:#0B273B;}
	.st9{fill:#41505E;}
	.st10{fill:#3D4C5A;}
	.st11{fill:#152E41;}
	.st12{fill:#122C3F;}
	.st13{fill:#1D3547;}
	.st14{fill:#0A2438;}
	.st15{fill:#4C5C69;}
	.st16{fill:#42525F;}
	.st17{fill:#2E404F;}
	.st18{fill:#233749;}
	.st19{fill:#114F68;}
	.st20{fill:#F9FAFA;}
	.st21{fill:#F8F9F9;}
	.st22{fill:#F6F8F8;}
	.st23{fill:#F6F7F7;}
	.st24{fill:#F3F4F4;}
	.st25{fill:#F1F3F2;}
	.st26{fill:#23394D;}
	.st27{fill:#233B4D;}
	.st28{fill:#072237;}
	.st29{fill:#FCFDFD;}
	.st30{fill:#678F9F;}
	.st31{fill:#FBFCFB;}
	.st32{fill:#072539;}
	.st33{fill:#022136;}
	.st34{fill:#032237;}
	.st35{fill:#042237;}
	.st36{fill:#07253A;}
	.st37{fill:#032135;}
	.st38{fill:#042236;}
	.st39{fill:#112B3D;}
	.st40{fill:#193043;}
	.st41{fill:#172F41;}
	.st42{fill:#142C3E;}
	.st43{fill:#FDFDFD;}
</style>
<g>
	<path class="st0" d="M392.7,432.9c-43.4,11.7-83.3,4-118.1-24.1c-75-60.4-62.5-176.3,23.1-220.2c75.7-38.9,169,5.2,187.9,88.7
		c1.9,8.4,3.3,16.8,2.7,25.4c-3.6,1-5-2.1-6.8-4c-15.6-15.4-31.1-30.9-46.5-46.5c-1.5-1.5-2.7-2.5-4.9-2.1c-1.1-0.8-2.2-1.2-2.9,0.4
		c-3,7.1-9.4,9.2-16,10.7c-7.3,1.7-14.9,2.4-22.2,4c-3.4,0.7-6.7,1.8-9.6,3.8c-2.2,1.5-3,3.2-1.3,5.6c0.1,1.4-0.5,2.3-1.6,3
		c-7.9-0.3-14.7-3.2-18.8-10.1c-9.5-16.2-30.7-19.4-44.4-6.5c-5.1,4.8-9.4,10.2-11.3,17.1c-0.5,1.9-1,4-2.9,5.2
		c-3.1-1.1-2.3,2.5-3.9,3.2c-3.8,7-7.8,13.8-8.7,22c0,1.6-0.1,3.2,0.2,4.9c-1.7,5.6-2.8,11,2.5,15.4c15.2,15.6,30.5,31.2,46.5,46.1
		c18.3,17.1,35.6,35.4,53.4,53.1C390.7,429.4,392.4,430.7,392.7,432.9z"/>
	<path class="st1" d="M376.4,277.4c0.4-1,0.8-1.9,1.3-2.9c0.2-4.9,4.2-6,7.7-7.5c7.6-3.2,15.8-3.5,23.8-4.8
		c7.9-1.2,15.1-3.5,19.4-10.9c0.4-0.7,1.2-1,2-1.2c2.3-3.2,3.6-0.4,5,1c15.9,15.8,31.7,31.6,47.6,47.4c1.6,1.6,2.9,3.5,5.1,4.3
		c1.5,18-1.8,35.3-8.7,51.8c-16.5,39.8-45.3,66.3-86.9,78.3c-0.8-0.6-1.7-1.1-2.4-1.8c-33.2-32.8-66.5-65.7-99.7-98.5
		c-0.9-0.8-1.5-1.9-2.2-2.9c10.2-2.8,18.1-8.9,24.8-16.8c2.8-3.3,6.5-3.4,9.5,0.1c3.9,4.4,8.8,5.6,14.3,5.4
		c4.9-0.2,9.8-0.1,14.4,2.1c2,1,4.4,1.9,5.1,4.1c2.4,7.1,8.2,9.5,14.7,10.3c6.1,0.7,8.2,3.6,8.5,9.5c0.3,6.9,1.7,13.8,4.4,20.3
		c1.9,4.6,4.6,8.8,9.6,10.6c5,1.8,7.3,0,7.1-5.3c-0.5-11.3-0.6-22.5,3.8-33.2c3.3-8.1,7.5-15.8,15.8-19.5c8-3.5,7.9-10.2,8.3-16.8
		c0.4-6.8-3-11.8-8.8-15c-6.5-3.5-13.6-4.1-20.8-3.5c-6.1,0.5-12.2,1.3-18.2-1C379.2,280.3,377,279.8,376.4,277.4z"/>
	<path class="st2" d="M376.4,277.4c6.3,3.6,12.9,4.2,20,3.1c7.6-1.1,15.1-0.7,22.2,2.5c9.3,4.2,12.7,9.6,11.8,19.8
		c-0.6,6.8-1.4,12.7-9.6,16.3c-11.1,4.9-14.9,16.2-17.3,27.4c-1.8,8.2-2,16.7-0.6,25c0.9,5-1.3,6.2-5.4,6.4
		c-5.3,0.2-8.9-2.5-11.7-6.6c-5.9-8.8-7.4-18.9-7.8-29.1c-0.2-3.7-0.9-5-5-5.4c-7.7-0.8-15-2.2-17.9-11.8c-1.2-4-7.4-5-12.3-4.9
		c-3.5,0.1-6.9,0.3-10.4,0.2c-3.6-0.1-6.7-1.7-9.3-4.1c-5.9-5.5-5.6-5.4-11.4,0.9c-6.3,6.8-13,13.1-23.3,12.7
		c-5.6-5-5.9-7.1-2.2-16.8c3-10.2,6.8-20.1,12.2-29.4c3.1-7.4,5.1-15.2,11.1-21.3c11.2-11.4,26.3-13.9,40-6.1
		c2.9,1.7,6.1,3.6,7.1,6.5C359.7,272.4,368.4,274.4,376.4,277.4z"/>
	<path class="st3" d="M430.6,250c-3.1,9.7-11.3,12-19.9,13.6c-7.6,1.4-15.3,1.7-22.7,4c-4.1,1.3-8.1,2.8-10.3,6.9
		c-4.3-0.3-4.4-2.2-1.7-4.9c3.5-3.4,7.8-5.1,12.5-5.9c7.4-1.3,14.9-2.3,22.2-3.8c7.1-1.5,13.9-3.7,15.9-12.1
		c0.2-0.9,0.2-2.1,1.7-1.9C431.1,246.2,430.3,248.4,430.6,250z"/>
	<path class="st4" d="M298.4,283.5c-2.9,10.3-7,20-12.2,29.4c-2.3-1.1-0.5-2.7-0.5-4.1c0.4-5.5,3.5-10.1,5.4-15.1
		c1.1-2.8,2.3-5.6,3.4-8.4C296,284.9,295.6,280.9,298.4,283.5z"/>
	<path class="st5" d="M294.6,285.3c-1.3,8.4-5.8,15.7-8.8,23.5c-1.8-4.3,1.3-7.6,2.5-11.2C289.7,293.2,291.5,288.8,294.6,285.3z"/>
	<path class="st6" d="M426.7,319.4c-3.4,19.9-13.5,46-20.2,52.9C399.8,352.4,410,325.1,426.7,319.4z"/>
	<path class="st7" d="M370.3,308.7c-4.9,0-9-3.3-9-7.2c0-3.9,4-7.3,8.9-7.4c4.9-0.1,8.9,3.2,9,7.2
		C379.2,305.4,375.2,308.7,370.3,308.7z"/>
	<path class="st7" d="M332.1,292.9c-4.8,0.1-9.2-3.1-9.4-6.9c-0.2-3.8,4-7.4,8.8-7.6c4.6-0.1,9.3,3.3,9.5,7
		C341.1,289.1,336.8,292.8,332.1,292.9z"/>
	<path class="st8" d="M333.8,272.5c-2.9-0.9-5.5-1-7.7,1.7c-1.2,1.5-3,0.7-4.5-0.1c-1.9-1.1-0.9-2.3,0.1-3.4c1.5-1.8-0.1-2.5-1.4-3
		c-1.7-0.7-2.3-1.6-1.2-3.2c0.8-1.2,1.9-2.2,3.5-1.4c2.9,1.5,5.2,1.4,7.1-1.8c1.2-2.1,3.3-1,5-0.3c2.9,1.2,0.6,2.6-0.1,3.7
		c-1.2,1.8-0.4,2.4,1.2,3c1.1,0.5,3.2,0.4,2.3,2.6C337.3,272.4,335.9,273.3,333.8,272.5z"/>
	<path class="st9" d="M343.2,291.2c-0.8,6.2-4.9,8.2-9.7,8.6c-5,0.4-9.4-1.3-11.6-7C331,298.7,335.8,298.4,343.2,291.2z"/>
	<path class="st10" d="M381.2,307.2c-0.5,5.8-4.4,8.2-9.2,8.9c-4.8,0.7-9-0.7-11.4-5.8c3.5,1.8,7.1,3.3,11.2,2.8
		C375.9,312.6,378.7,310.2,381.2,307.2z"/>
	<path class="st11" d="M401.4,306c-0.2,3.1-2.1,4-4.5,4.1c-2.4,0.1-4.6-0.7-4.8-3.4c-0.2-2.7,2-3.8,4.4-3.9
		C398.9,302.6,400.6,303.9,401.4,306z"/>
	<path class="st12" d="M392.7,298.7c-2.2-0.4-4.6-1-4.7-3.7c-0.1-2.7,2.2-3.7,4.6-3.7c2.3,0,4.7,0.7,4.8,3.5
		C397.4,297.6,395,298.1,392.7,298.7z"/>
	<path class="st13" d="M411.9,291.1c-0.6,2.6-2.5,3.5-4.9,3.4c-2.4-0.1-4.6-1-4.4-3.8c0.2-2.7,2.5-3.5,4.8-3.5
		C409.7,287.3,411.6,288.5,411.9,291.1z"/>
	<path class="st14" d="M412.4,307c-2.3-0.5-4.7-1.2-4.3-4.1c0.3-2.8,2.7-3.4,5-3.2c2.1,0.2,4.2,1.1,4,3.6
		C417,306.2,414.7,306.7,412.4,307z"/>
	<path class="st15" d="M372.7,288.3c1.9,0.6,4.2,0.7,4.5,3.2c0.1,1.1-1.3,1.5-2.3,1.3c-1.9-0.4-4.2-0.7-4.4-3.2
		C370.4,288.5,371.8,288.3,372.7,288.3z"/>
	<path class="st16" d="M380.8,282.4c1.7,0.6,3.9,0.7,4.4,2.6c0.4,1.5-1.2,1.9-2.4,1.6c-1.7-0.5-3.8-0.7-4.2-2.8
		C378.4,282.8,379.6,282.3,380.8,282.4z"/>
	<path class="st17" d="M348.5,280.2c2.6-1.2,4.6-0.7,6.3,1.2c0.6,0.7,0.4,1.6-0.5,1.8C351.8,283.7,349.7,283.1,348.5,280.2z"/>
	<path class="st18" d="M351.8,272.8c2.8-1.3,4.9-1,6.6,1.1c0.6,0.7,0.5,1.7-0.4,1.9C355.6,276.4,353.7,275.4,351.8,272.8z"/>
</g>
<g>
	<path class="st19" d="M279.4,258.2c-45.9,12-87.5,2.7-122.4-29c-39.2-35.5-52.7-80.7-39.2-131.8c13-49,45.8-81,95-93.6
		c89.2-22.8,172.5,50.4,163.1,142.1c-0.2,1.8-0.8,3.6-1.2,5.3c-3.9,1.7-5.5-1.8-7.4-3.7c-23.1-23-46.1-46-69.1-69
		c-2-2-3.9-4.2-6.6-5.3c-1.5-1.4-2.1-3.6-4-4.6c-1-0.8-2-1.7-2.9-2.6c-1.3-1.4-2.7-2.7-4.1-4c-1.1-1-2.2-2-3.3-2.9
		c-2.8-2.4-6.1-3.1-9.6-3.1c-15.2,0-30.4,0-45.6,0c-1,0-2,0-3,0.2c-4.9,0.8-5.7,2.5-3.6,7.1c0.7,1.5,1.6,2.8,1.8,4.5
		c-1.6,3.8-3.9,0.7-5.9,0.6c-1.6-0.6-2.2-2.3-3.8-3.3c-0.3,4.3,4.9,6.7,3.5,11.1c-2.8,1.7-4-2.1-6.3-1.9c-1.4-0.6-2.1-2.4-5.5-3.1
		c11.2,18.2,20.2,36.1,31.6,52.6c1.3,2,3.3,3.5,3.5,6c-0.9,2.4-3.3,2.8-5.3,3.7c-25.7,12.3-29.6,47.2-7.2,64.8
		c1.7,1.4,3.8,2.4,5,4.4c0.5,2.4,2.4,3.7,4,5.2c14.8,14.8,29.6,29.6,44.4,44.4C276.8,254.2,278.9,255.6,279.4,258.2z"/>
	<path class="st1" d="M205.5,74.2c2.8-1.6,3.1,2.6,5.4,2.2c3.1,0.1,3.8,2.8,5,4.8c6.4,10.9,12.9,21.7,19.2,32.7
		c1,1.8,1.9,3.6,3.8,4.8c-3.4-6.7-7.3-13.1-11.1-19.6c-4.8-8.3-9.8-16.5-14.5-24.8c-1.1-1.8-3-3.6-1.8-6.1c2.2-2.1,3,1.8,4.9,1.1
		c3.2,0.8,4.2,3.7,5.6,6.1c7.4,12.2,14.6,24.5,21.7,36.9c1.7,2.9,2.7,6.5,7.1,7.9c0.1-2.6-1.5-4.2-2.5-6
		c-5.5-10-11.8-19.6-17.2-29.6c-2.8-5.2-2-6.7,3.6-7c6.7-0.3,13.5-0.3,20.2,0c5.5,0.3,6.5,2.2,3.9,7.1c-1.5,2.9-3.4,5.6-5,8.4
		c-1,1.9-2.6,3.8-0.8,6.7c5.7-8.5,10.2-17.4,15.4-25.8c3.2-5.1,4.8-11.3,10.3-14.8c1.4,0.6,2.5,1.6,3.1,3.1c1.1,2.5-0.8,4.3-1.8,6.1
		c-6.3,10.9-12.6,21.9-19.1,32.7c-1.2,2.1-2.6,4.1-2.9,6.7c7.4-11.7,14.1-23.8,21.3-35.7c1.5-2.5,2.2-5.8,5.7-6.7
		c1.4,0.5,2.3,1.5,2.8,2.8c1.5,2.8-0.8,4.6-1.9,6.6c-6.6,11.4-13.2,22.9-20,34.3c-1.4,2.3-3.4,4.5-2.9,8.6
		c4.4-5.1,6.6-10.5,9.5-15.4c4.8-8,9.4-16.2,14.2-24.2c1.2-2,2.1-4.5,4.9-5.1c3.3-1.5,4.3,1.7,5.8,3.2
		c23.9,23.7,47.6,47.5,71.5,71.2c1.7,1.7,3,4,5.8,4.1c-2.2,20.5-10.2,38.8-21.9,55.6c-17.1,24.5-40.2,41.1-68.6,50.3
		c-1.5,0.5-3.2,0.6-4.7,1c-17.6-17.4-35.3-34.9-52.9-52.3c-0.7-0.7-0.8-1.4,0.1-2c3-1.5,5.5,0.5,8.2,1.2c16.2,4,32.6-1.5,41.3-14.1
		c9.7-14,10.2-31,0.8-44.1c-9-12.6-21.4-18.4-37-16.5c-2,0.2-4.1,0.7-5.8-0.8c-1.9-1.2-3.8-2.4-4-5c1.4-2.8-0.1-5-1.5-7.4
		c-7.1-12.1-14.3-24.2-21.3-36.4C206.2,78.8,204,77,205.5,74.2z"/>
	<path class="st20" d="M278.8,59.2c-8.6,14.7-17.2,29.5-25.7,44.2c-4-3.6-3.4-7-0.8-10.9c2.8-4.1,5.1-8.6,7.9-13.5
		c-10.5,0-20,0-30.6,0c8.4,14.4,16.5,28.3,24.7,42.3c-6.2,1-6.3,1-9.1-3.7c-9.6-16.1-19.2-32.2-28.7-48.2c-1.1-2.1-2.2-4.3-3.4-6.4
		c-2.5-4.5-1-8,4.2-8c18.5-0.2,36.9-0.1,55.4-0.1C275.6,54.8,277.2,57,278.8,59.2z"/>
	<path class="st21" d="M234.1,129.6c15.7-3.2,29.6-0.2,40.7,11.8c12.3,13.3,13.9,33.1,4.1,48.6c-9.4,14.8-27.8,21.6-44.8,16.5
		c-2.5-0.8-5-1.7-7.5-2.6c-18.2-13.2-24.5-27.5-19.9-45.6C210.5,143.7,220.5,134.8,234.1,129.6z"/>
	<path class="st22" d="M205.5,74.2c8.8,15.2,17.4,30.4,26.4,45.4c1.9,3.1,1.1,4.1-1.8,4.9c-2.3-0.1-2.8-2.1-3.7-3.6
		c-8.9-15.2-17.9-30.4-26.8-45.6c-0.4-0.7-0.8-1.4-1.2-2.1c-1-1.8-0.4-3.1,1.1-4.2c2.4-1.8,2.5,0.7,3.4,1.8
		C203.8,71.9,204.7,73.1,205.5,74.2z"/>
	<path class="st23" d="M291.7,72.9c-8.5,14.5-17,29.1-25.6,43.6c-0.8,1.4-1.2,4.7-3.7,3.3c-2.1-1.2-2.4-3.6-0.8-6.3
		c8.9-15,17.6-30.2,26.3-45.3C290.5,68.7,292,70,291.7,72.9z"/>
	<path class="st24" d="M211.5,68.2c10.2,17.5,20.4,35.1,30.6,52.8c-3.7,2.3-4.9-0.4-6.3-2.8c-7.1-12.1-14.2-24.2-21.3-36.2
		c-1.1-1.9-2.4-3.7-3.7-5.6c-1.5-2.8-3-5.7-4.5-8.5c-0.8-1.5-2.5-3.3-0.1-4.7c2.8-1.6,2.4,1.7,3.5,2.7
		C210.4,66.5,210.9,67.4,211.5,68.2z"/>
	<path class="st25" d="M285.1,65.4c-9.1,15.3-18.1,30.7-27.2,46c-3.4-2.4-2-4.6-0.5-7.1c8.2-14,16.4-28.1,24.6-42.1
		C283.5,62.8,284.5,63.8,285.1,65.4z"/>
	<path class="st26" d="M245.1,59.9c7.3,0,14.7,0,22,0c1.2,0,3.4-0.7,3.3,1.4c0,1.5-1.2,3-3.2,3c-1.6,0-3.3,0-4.9,0
		c-12,0-24.1,0-36.1,0c-1.4,0-2.9,0-4.3-0.1c-1.7-0.1-2.7-1.5-2.7-2.8c-0.1-2.2,2-1.5,3.2-1.5C230,59.9,237.6,59.9,245.1,59.9z"/>
	<path class="st27" d="M244.6,68.1c5.9,0,11.8-0.1,17.7,0c1.2,0,3.3-0.8,3.3,1.3c0,1.6-1.2,3-3.2,3.1c-1,0.1-2,0.1-3,0.1
		c-10.1,0-20.3,0-30.4,0c-2.5,0-5-0.7-4.8-3.3c0.2-2.5,3-1.1,4.6-1.2C234.1,68,239.3,68.1,244.6,68.1z"/>
	<path class="st28" d="M210.3,168.5c-0.1-19.4,15.5-35.2,34.7-35.4c19.3-0.1,35.1,15.6,35.2,34.9c0.1,19.6-15.1,35-34.7,35.2
		C226,203.4,210.4,188,210.3,168.5z"/>
	<path class="st29" d="M275.9,168.1c0.1,17.1-13.6,30.9-30.5,30.8c-16.9,0-30.8-14-30.7-30.8c0.1-16.6,13.8-30.3,30.4-30.5
		C262.1,137.6,275.8,151.1,275.9,168.1z"/>
</g>
<g>
	<path class="st30" d="M166.2,433.2c-21.6,6.7-43.5,6.6-65.2,1.4C47.9,421.7,9.3,379.2,1.1,325.2c-9.8-64.4,31.6-128.1,94.3-145.4
		c71.7-19.7,143.9,21,163.5,92.8c6.4,23.2,6.3,46.7-0.9,69.9c-11.7-13.9-25.3-25.9-37.9-38.9c-10.9-11.3-22.4-22-33.1-33.5
		c-1.4-1.5-3.3,0.9-4-1.3c-24.4-31.9-68.6-35.9-96.6-7.7c-27.7,27.9-25.3,71.9,6.3,96.3c1.8,1.4,3.8,2.4,4.9,4.5
		c0.5,2.1,2,3.5,3.5,4.9c20.9,20.5,41,41.8,62.5,61.8C165,429.8,166.2,431.1,166.2,433.2z"/>
	<path class="st1" d="M184.4,268.7c1.7,0.2,3.2,0.2,4.7,1.7c22,22.2,44.1,44.2,66.3,66.3c1.7,1.7,2.7,3.5,2.7,5.9
		c-10.3,36.7-33,63.3-66.3,81.1c-8.1,4.3-16.4,8-25.6,9.5c-21.9-21.7-43.9-43.4-65.8-65.2c-1.3-1.3-4.3-2-2.9-5
		c2.6-1.3,4.8,0.3,6.9,1.3c40.4,18.8,89.1-7.7,91-56.7c0.3-8.7-1.2-17.5-4.8-25.1c0.4,5,0.4,10.5,1.2,16c0.5,3.6-1.3,5.9-5.1,6.1
		c-5.5,0.4-11.2,1.1-14.5-7.3c-1.5,8.1-6.6,7.4-11.3,7.4c-7.1,0-14.3,0-21.4,0c-4.8,0-7.2-2.2-7.1-7c0-4.5-0.1-9,0-13.5
		c0.1-4.3,2.1-7.2,6.5-7.3c6.1-0.1,10.4-2.9,13.5-7.8c0.6-0.4,1.2-0.7,1.8-0.9c5.6-1.8,11.5-1.7,17.1-3.8
		C175.7,263.1,180.1,267.1,184.4,268.7z"/>
	<path class="st31" d="M184.4,268.7c-3.4-0.9-7.5,0.8-10-3.2c-0.4-0.6-1.5-1.2-2.1-0.4c-4.6,4.9-10.8,2.3-16.1,3.7
		c-0.7,0.7-1.5,0.8-1.7-0.3c-1.7-8.3-8.7-11.4-14.7-15.4c-2.3-1.6-3.8-0.9-3.9,2.1c-0.1,3.7,0,7.3-0.1,11c-0.1,4,2.2,4.9,5.6,4.2
		c2.8-0.5,5.5-1.6,8.3-2c1.3-0.2,3.7-1.8,3.9,1.5c-0.4,0.2-1,0.3-1,0.5c-1.4,7.7-7.6,7.8-13.4,8.1c-3.3,0.2-4.7,1.3-4.5,4.8
		c0.2,5.1,0.2,10.2,0,15.3c-0.1,3.3,0.6,4.7,4.3,4.6c8.8-0.3,17.5-0.2,26.3,0c3.2,0.1,5.2-0.3,4.3-4.2c-0.3-1.5,0-2.9,2.1-2.8
		c1.5,0.1,4-0.5,3.9,1.7c-0.4,7,4.5,5.2,8.2,5.2c7.8,0.1,7.9,0,6.1-7.7c-1.4-6.2-0.7-12.3-0.6-19.2c17.1,28.4,5.8,69-23.6,86.3
		c-22.5,13.2-45.3,12.5-68.1,0.4c-15.2-10.3-25.7-23.9-30.1-42.1c-7.1-28.9,8.4-60.6,36.5-74c26.5-12.7,61.1-4.7,78.4,18.2
		C183.3,266.1,183.8,267.5,184.4,268.7z"/>
	<path class="st6" d="M158.8,297.7c-3-6-5.3-12-4.8-19c0.4-5.3,1.9-7.4,7.3-7.1c6.1,0.3,12.3,0.1,18.4,0.1c4,0,5.9,1.6,5.9,5.9
		c-0.2,16.8,1.8,15.3-14.3,15.1C166.1,292.6,161.6,293.2,158.8,297.7z"/>
	<path class="st32" d="M153.5,269.9c-4.7-0.9-8.7,1.8-13.1,2.5c-3.9,0.6-6.2,0.3-5.8-4.7c0.4-5.1,0.1-10.2,0.1-15.3
		c0-2.2,0.2-3.8,3.1-2.3c7,3.5,12.9,8.4,17.9,14.5c1.4,1.6,0,2.9,0.5,4.2C155.3,269.2,154.4,269.6,153.5,269.9z"/>
	<path class="st33" d="M88,294.2c4.1,1.2,6.4,0.8,7.3-3.9c0.9-5,2.9-9.7,5.1-14.4c1.3-2.9,2.8-3.4,5.6-2.1c6,2.8,12.3,4.5,18.9,4.8
		c2.6,0.1,3.6,1.1,3.5,3.7c-0.2,3.5,0,6.9,0,10.4c-0.1,3.2,0.8,7.2-0.7,9.5c-1.5,2.3-5.7,0.7-8.7,0.8c-2.4,0.1-3.1,1-3.1,3.3
		c0,2.4,0.9,3,3.2,3.3c3,0.3,7.1-1.9,8.9,1.5c1.2,2.5,0.4,6,0.4,9.1c0,4.3,1.2,9.4-0.7,12.6c-1.8,3.1-7.5,1.4-11.4,2.6
		c-2.1,0.7-4.3,1.3-6.4,2.1c-8.5,3-8.5,3-11.7-5.8c-0.8-2.3-1.6-4.6-2.3-7c-0.9-2.8-3.3-2.1-5.2-1.8c-2.9,0.4-1.2,2.4-0.9,3.8
		c1,5.1,3.1,9.8,5.6,14.2c2,3.5-0.5,4.1-2.3,5.7c-2.1,1.8-3.7,1.8-5.6-0.4c-8.1-9.4-13.3-20-14.6-32.4c-0.2-2-0.8-4.3,2.6-4.2
		c2.5,0.1,2.3-1.7,2.3-3.4c0-1.5,0-3.1-2-3c-3.1,0.2-3.1-1.5-2.9-3.8c1.3-12.7,6.7-23.4,14.9-32.9c2.1-2.5,3.8-1.3,5.7,0.2
		c1.8,1.4,3.5,2.3,1.9,5.3C91.6,278.9,89.1,286.2,88,294.2z"/>
	<path class="st34" d="M134.7,321.5c0-11.9,0-11.9,12.2-11.9c6.3,0,12.6,0.2,18.9-0.1c3.4-0.1,4.3,1.1,3.8,4.3
		c-1.4,8-3.2,15.9-6.8,23.3c-1.5,3.1-2.9,3-5.6,1.9c-5.6-2.4-11.4-4.4-17.6-4.6c-4-0.1-5.4-1.6-4.9-5.5
		C134.9,326.5,134.7,324,134.7,321.5z"/>
	<path class="st35" d="M182.7,309.6c8.8,0,8.8,0,7.2,7.8c-2.2,10.6-6.6,20-13.8,28.2c-1.7,2-2.9,3.6-5.8,1.2c-2.5-2-4-3.3-2-6.8
		c4-7.1,6.9-15,7.1-23.1C175.6,310.6,177.7,308.3,182.7,309.6z"/>
	<path class="st36" d="M134.7,351.6c0-12.5,0-12.5,12.4-9.4c3.3,0.8,8.1,1.1,9,4c1,3.1-3.3,5.4-5.6,7.8c-3.5,3.7-7.7,6.5-12.3,8.8
		c-2.4,1.2-3.8,1.1-3.6-2.2C134.8,357.6,134.7,354.6,134.7,351.6z"/>
	<path class="st37" d="M105.9,346.2c1.6-0.8,2.5-1.2,3.4-1.7c5.4-2.6,12.4-5.5,16.9-3.6c5.2,2.2,1.1,10,2,15.3
		c0.4,2.4,0.1,4.8,0.1,7.9C118.6,360.5,112,354.2,105.9,346.2z"/>
	<path class="st38" d="M106.3,267c6.3-8.9,12.6-14,22.1-17.7c0,7.3,0,14.2,0,21.2c0,3.2-2.3,2.3-3.9,2
		C118.2,271.4,112.1,270.2,106.3,267z"/>
	<path class="st39" d="M94.9,353c6.4-4.7,6.7-4.6,17.9,9.5C105.5,360.3,100.1,357.1,94.9,353z"/>
	<path class="st40" d="M168.5,352.6c-5.3,4.6-10.7,7.5-18,9.9c4.2-4.5,7.5-7.9,10.7-11.4C164.3,347.7,165.7,351.6,168.5,352.6z"/>
	<path class="st41" d="M94.2,260.4c6-4.7,11.4-7.6,18.5-10.3c-4.3,4.7-7.7,8.8-11.5,12.4C98.6,264.9,97.4,260.9,94.2,260.4z"/>
	<path class="st42" d="M151.6,250.2c5.4,3.1,10.7,6.1,16.5,9.4c-2.9,3.2-5,5-8.2,0.7c-2.5-3.4-5.8-6.2-8.7-9.3
		C151.3,250.7,151.5,250.5,151.6,250.2z"/>
	<path class="st43" d="M108.6,325.8c-4.7-9.1-12.5-6.7-19.3-6.5c-6,0.2-8.3-1.4-8.1-7.8c0.5-14.7-1.4-13.1,13-13.2
		c4.3,0,8.5,0,12.8,0c1.7,0,3.3,0.1,4.5,1.5c1.4,1.7,1.4,17.5-0.4,18.2C107.5,319.6,109.4,322.4,108.6,325.8z"/>
</g>
</svg>
