<?xml version="1.0" encoding="utf-8"?>
<!-- Generator: Adobe Illustrator 21.0.2, SVG Export Plug-In . SVG Version: 6.00 Build 0)  -->
<svg version="1.1" id="Layer_1" xmlns="http://www.w3.org/2000/svg" xmlns:xlink="http://www.w3.org/1999/xlink" x="0px" y="0px"
	 viewBox="0 0 264 263" style="enable-background:new 0 0 264 263;" xml:space="preserve">
<style type="text/css">
	.st0{fill:#114F68;}
	.st1{fill:#012136;}
	.st2{fill:#F9FAFA;}
	.st3{fill:#F8F9F9;}
	.st4{fill:#F6F8F8;}
	.st5{fill:#F6F7F7;}
	.st6{fill:#F3F4F4;}
	.st7{fill:#F1F3F2;}
	.st8{fill:#23394D;}
	.st9{fill:#233B4D;}
	.st10{fill:#072237;}
	.st11{fill:#FCFDFD;}
</style>
<path class="st0" d="M166.4,258.1c-45.9,12-87.5,2.7-122.4-29C4.8,193.6-8.7,148.4,4.8,97.4c13-49,45.8-81,95-93.6
	C189.1-19,272.4,54.2,262.9,145.9c-0.2,1.8-0.8,3.6-1.2,5.3c-3.9,1.7-5.5-1.8-7.4-3.7c-23.1-23-46.1-46-69.1-69
	c-2-2-3.9-4.2-6.6-5.3c-1.5-1.4-2.1-3.6-4-4.6c-1-0.8-2-1.7-2.9-2.6c-1.3-1.4-2.7-2.7-4.1-4c-1.1-1-2.2-2-3.3-2.9
	c-2.8-2.4-6.1-3.1-9.6-3.1c-15.2,0-30.4,0-45.6,0c-1,0-2,0-3,0.2c-4.9,0.8-5.7,2.5-3.6,7.1c0.7,1.5,1.6,2.8,1.8,4.5
	c-1.6,3.8-3.9,0.7-5.9,0.6c-1.6-0.6-2.2-2.3-3.8-3.3c-0.3,4.3,4.9,6.7,3.5,11.1c-2.8,1.7-4-2.1-6.3-1.9c-1.4-0.6-2.1-2.4-5.5-3.1
	c11.2,18.2,20.2,36.1,31.6,52.6c1.3,2,3.3,3.5,3.5,6c-0.9,2.4-3.3,2.8-5.3,3.7c-25.7,12.3-29.6,47.2-7.2,64.8c1.7,1.4,3.8,2.4,5,4.4
	c0.5,2.4,2.4,3.7,4,5.2c14.8,14.8,29.6,29.6,44.4,44.4C163.8,254.1,165.9,255.5,166.4,258.1z"/>
<path class="st1" d="M92.5,74.1c2.8-1.6,3.1,2.6,5.4,2.2c3.1,0.1,3.8,2.8,5,4.8c6.4,10.9,12.9,21.7,19.2,32.7c1,1.8,1.9,3.6,3.8,4.8
	c-3.4-6.7-7.3-13.1-11.1-19.6c-4.8-8.3-9.8-16.5-14.5-24.8c-1.1-1.8-3-3.6-1.8-6.1c2.2-2.1,3,1.8,4.9,1.1c3.2,0.8,4.2,3.7,5.6,6.1
	c7.4,12.2,14.6,24.5,21.7,36.9c1.7,2.9,2.7,6.5,7.1,7.9c0.1-2.6-1.5-4.2-2.5-6c-5.5-10-11.8-19.6-17.2-29.6c-2.8-5.2-2-6.7,3.6-7
	c6.7-0.3,13.5-0.3,20.2,0c5.5,0.3,6.5,2.2,3.9,7.1c-1.5,2.9-3.4,5.6-5,8.4c-1,1.9-2.6,3.8-0.8,6.7c5.7-8.5,10.2-17.4,15.4-25.8
	c3.2-5.1,4.8-11.3,10.3-14.8c1.4,0.6,2.5,1.6,3.1,3.1c1.1,2.5-0.8,4.3-1.8,6.1c-6.3,10.9-12.6,21.9-19.1,32.7
	c-1.2,2.1-2.6,4.1-2.9,6.7c7.4-11.7,14.1-23.8,21.3-35.7c1.5-2.5,2.2-5.8,5.7-6.7c1.4,0.5,2.3,1.5,2.8,2.8c1.5,2.8-0.8,4.6-1.9,6.6
	c-6.6,11.4-13.2,22.9-20,34.3c-1.4,2.3-3.4,4.5-2.9,8.6c4.4-5.1,6.6-10.5,9.5-15.4c4.8-8,9.4-16.2,14.2-24.2c1.2-2,2.1-4.5,4.9-5.1
	c3.3-1.5,4.3,1.7,5.8,3.2c23.9,23.7,47.6,47.5,71.5,71.2c1.7,1.7,3,4,5.8,4.1c-2.2,20.5-10.2,38.8-21.9,55.6
	c-17.1,24.5-40.2,41.1-68.6,50.3c-1.5,0.5-3.2,0.6-4.7,1c-17.6-17.4-35.3-34.9-52.9-52.3c-0.7-0.7-0.8-1.4,0.1-2
	c3-1.5,5.5,0.5,8.2,1.2c16.2,4,32.6-1.5,41.3-14.1c9.7-14,10.2-31,0.8-44.1c-9-12.6-21.4-18.4-37-16.5c-2,0.2-4.1,0.7-5.8-0.8
	c-1.9-1.2-3.8-2.4-4-5c1.4-2.8-0.1-5-1.5-7.4c-7.1-12.1-14.3-24.2-21.3-36.4C93.2,78.7,91,76.9,92.5,74.1z"/>
<path class="st2" d="M165.8,59.1c-8.6,14.7-17.2,29.5-25.7,44.2c-4-3.6-3.4-7-0.8-10.9c2.8-4.1,5.1-8.6,7.9-13.5
	c-10.5,0-20,0-30.6,0c8.4,14.4,16.5,28.3,24.7,42.3c-6.2,1-6.3,1-9.1-3.7c-9.6-16.1-19.2-32.2-28.7-48.2c-1.1-2.1-2.2-4.3-3.4-6.4
	c-2.5-4.5-1-8,4.2-8c18.5-0.2,36.9-0.1,55.4-0.1C162.6,54.7,164.2,56.9,165.8,59.1z"/>
<path class="st3" d="M121.1,129.5c15.7-3.2,29.6-0.2,40.7,11.8c12.3,13.3,13.9,33.1,4.1,48.6c-9.4,14.8-27.8,21.6-44.8,16.5
	c-2.5-0.8-5-1.7-7.5-2.6c-18.2-13.2-24.5-27.5-19.9-45.6C97.5,143.6,107.5,134.7,121.1,129.5z"/>
<path class="st4" d="M92.5,74.1c8.8,15.2,17.4,30.4,26.4,45.4c1.9,3.1,1.1,4.1-1.8,4.9c-2.3-0.1-2.8-2.1-3.7-3.6
	c-8.9-15.2-17.9-30.4-26.8-45.6c-0.4-0.7-0.8-1.4-1.2-2.1c-1-1.8-0.4-3.1,1.1-4.2c2.4-1.8,2.5,0.7,3.4,1.8
	C90.8,71.8,91.7,73,92.5,74.1z"/>
<path class="st5" d="M178.7,72.8c-8.5,14.5-17,29.1-25.6,43.6c-0.8,1.4-1.2,4.7-3.7,3.3c-2.1-1.2-2.4-3.6-0.8-6.3
	c8.9-15,17.6-30.2,26.3-45.3C177.5,68.6,179,69.9,178.7,72.8z"/>
<path class="st6" d="M98.5,68.1c10.2,17.5,20.4,35.1,30.6,52.8c-3.7,2.3-4.9-0.4-6.3-2.8c-7.1-12.1-14.2-24.2-21.3-36.2
	c-1.1-1.9-2.4-3.7-3.7-5.6c-1.5-2.8-3-5.7-4.5-8.5c-0.8-1.5-2.5-3.3-0.1-4.7c2.8-1.6,2.4,1.7,3.5,2.7C97.4,66.4,97.9,67.3,98.5,68.1
	z"/>
<path class="st7" d="M172.1,65.3c-9.1,15.3-18.1,30.7-27.2,46c-3.4-2.4-2-4.6-0.5-7.1c8.2-14,16.4-28.1,24.6-42.1
	C170.5,62.6,171.5,63.7,172.1,65.3z"/>
<path class="st8" d="M132.1,59.8c7.3,0,14.7,0,22,0c1.2,0,3.4-0.7,3.3,1.4c0,1.5-1.2,3-3.2,3c-1.6,0-3.3,0-4.9,0
	c-12,0-24.1,0-36.1,0c-1.4,0-2.9,0-4.3-0.1c-1.7-0.1-2.7-1.5-2.7-2.8c-0.1-2.2,2-1.5,3.2-1.5C117,59.7,124.6,59.8,132.1,59.8z"/>
<path class="st9" d="M131.6,68c5.9,0,11.8-0.1,17.7,0c1.2,0,3.3-0.8,3.3,1.3c0,1.6-1.2,3-3.2,3.1c-1,0.1-2,0.1-3,0.1
	c-10.1,0-20.3,0-30.4,0c-2.5,0-5-0.7-4.8-3.3c0.2-2.5,3-1.1,4.6-1.2C121.1,67.9,126.3,68,131.6,68z"/>
<path class="st10" d="M97.3,168.4c-0.1-19.4,15.5-35.2,34.7-35.4c19.3-0.1,35.1,15.6,35.2,34.9c0.1,19.6-15.1,35-34.7,35.2
	C113,203.3,97.4,187.8,97.3,168.4z"/>
<path class="st11" d="M162.9,168c0.1,17.1-13.6,30.9-30.5,30.8c-16.9,0-30.8-14-30.7-30.8c0.1-16.6,13.8-30.3,30.4-30.5
	C149.1,137.4,162.8,151,162.9,168z"/>
</svg>
